%TF.GenerationSoftware,KiCad,Pcbnew,8.0.3*%
%TF.CreationDate,2024-12-17T17:01:09-03:00*%
%TF.ProjectId,Sumo_Geral_Modular,53756d6f-5f47-4657-9261-6c5f4d6f6475,rev?*%
%TF.SameCoordinates,Original*%
%TF.FileFunction,Paste,Bot*%
%TF.FilePolarity,Positive*%
%FSLAX46Y46*%
G04 Gerber Fmt 4.6, Leading zero omitted, Abs format (unit mm)*
G04 Created by KiCad (PCBNEW 8.0.3) date 2024-12-17 17:01:09*
%MOMM*%
%LPD*%
G01*
G04 APERTURE LIST*
G04 Aperture macros list*
%AMRoundRect*
0 Rectangle with rounded corners*
0 $1 Rounding radius*
0 $2 $3 $4 $5 $6 $7 $8 $9 X,Y pos of 4 corners*
0 Add a 4 corners polygon primitive as box body*
4,1,4,$2,$3,$4,$5,$6,$7,$8,$9,$2,$3,0*
0 Add four circle primitives for the rounded corners*
1,1,$1+$1,$2,$3*
1,1,$1+$1,$4,$5*
1,1,$1+$1,$6,$7*
1,1,$1+$1,$8,$9*
0 Add four rect primitives between the rounded corners*
20,1,$1+$1,$2,$3,$4,$5,0*
20,1,$1+$1,$4,$5,$6,$7,0*
20,1,$1+$1,$6,$7,$8,$9,0*
20,1,$1+$1,$8,$9,$2,$3,0*%
G04 Aperture macros list end*
%ADD10RoundRect,0.225000X0.225000X0.250000X-0.225000X0.250000X-0.225000X-0.250000X0.225000X-0.250000X0*%
%ADD11RoundRect,0.150000X0.587500X0.150000X-0.587500X0.150000X-0.587500X-0.150000X0.587500X-0.150000X0*%
%ADD12RoundRect,0.200000X0.200000X0.275000X-0.200000X0.275000X-0.200000X-0.275000X0.200000X-0.275000X0*%
%ADD13RoundRect,0.225000X0.250000X-0.225000X0.250000X0.225000X-0.250000X0.225000X-0.250000X-0.225000X0*%
%ADD14RoundRect,0.150000X-0.587500X-0.150000X0.587500X-0.150000X0.587500X0.150000X-0.587500X0.150000X0*%
%ADD15RoundRect,0.375000X0.625000X0.375000X-0.625000X0.375000X-0.625000X-0.375000X0.625000X-0.375000X0*%
%ADD16RoundRect,0.500000X0.500000X1.400000X-0.500000X1.400000X-0.500000X-1.400000X0.500000X-1.400000X0*%
%ADD17RoundRect,0.218750X0.218750X0.256250X-0.218750X0.256250X-0.218750X-0.256250X0.218750X-0.256250X0*%
%ADD18RoundRect,0.200000X-0.275000X0.200000X-0.275000X-0.200000X0.275000X-0.200000X0.275000X0.200000X0*%
%ADD19RoundRect,0.218750X0.256250X-0.218750X0.256250X0.218750X-0.256250X0.218750X-0.256250X-0.218750X0*%
%ADD20RoundRect,0.200000X-0.200000X-0.275000X0.200000X-0.275000X0.200000X0.275000X-0.200000X0.275000X0*%
%ADD21RoundRect,0.150000X-0.825000X-0.150000X0.825000X-0.150000X0.825000X0.150000X-0.825000X0.150000X0*%
%ADD22RoundRect,0.225000X-0.225000X-0.250000X0.225000X-0.250000X0.225000X0.250000X-0.225000X0.250000X0*%
%ADD23O,1.550000X0.890000*%
%ADD24O,0.950000X1.250000*%
%ADD25R,1.350000X0.400000*%
%ADD26R,1.550000X1.200000*%
%ADD27R,1.550000X1.500000*%
G04 APERTURE END LIST*
D10*
%TO.C,C2*%
X176070000Y-90090000D03*
X174520000Y-90090000D03*
%TD*%
D11*
%TO.C,Q1*%
X170930000Y-60000000D03*
X170930000Y-61900000D03*
X169055000Y-60950000D03*
%TD*%
D12*
%TO.C,R6*%
X171240000Y-63860000D03*
X169590000Y-63860000D03*
%TD*%
D13*
%TO.C,C7*%
X166820000Y-75835000D03*
X166820000Y-74285000D03*
%TD*%
D14*
%TO.C,Q2*%
X164625000Y-64860000D03*
X164625000Y-62960000D03*
X166500000Y-63910000D03*
%TD*%
D15*
%TO.C,U2*%
X181130000Y-81570000D03*
X181130000Y-83870000D03*
D16*
X174830000Y-83870000D03*
D15*
X181130000Y-86170000D03*
%TD*%
D17*
%TO.C,D4*%
X179435000Y-88440000D03*
X177860000Y-88440000D03*
%TD*%
D10*
%TO.C,C4*%
X183240000Y-79350000D03*
X181690000Y-79350000D03*
%TD*%
D18*
%TO.C,R4*%
X170340000Y-72575000D03*
X170340000Y-74225000D03*
%TD*%
D19*
%TO.C,D2*%
X153340000Y-79697500D03*
X153340000Y-78122500D03*
%TD*%
D15*
%TO.C,U1*%
X181300000Y-92470000D03*
X181300000Y-94770000D03*
D16*
X175000000Y-94770000D03*
D15*
X181300000Y-97070000D03*
%TD*%
D20*
%TO.C,R7*%
X164240000Y-61020000D03*
X165890000Y-61020000D03*
%TD*%
D21*
%TO.C,U3*%
X159650000Y-75880000D03*
X159650000Y-74610000D03*
X159650000Y-73340000D03*
X159650000Y-72070000D03*
X159650000Y-70800000D03*
X159650000Y-69530000D03*
X159650000Y-68260000D03*
X159650000Y-66990000D03*
X164600000Y-66990000D03*
X164600000Y-68260000D03*
X164600000Y-69530000D03*
X164600000Y-70800000D03*
X164600000Y-72070000D03*
X164600000Y-73340000D03*
X164600000Y-74610000D03*
X164600000Y-75880000D03*
%TD*%
D22*
%TO.C,C3*%
X181197500Y-88410000D03*
X182747500Y-88410000D03*
%TD*%
D10*
%TO.C,C1*%
X181245000Y-99910000D03*
X179695000Y-99910000D03*
%TD*%
D18*
%TO.C,R5*%
X168520000Y-70815000D03*
X168520000Y-72465000D03*
%TD*%
D23*
%TO.C,J12*%
X148470000Y-79500000D03*
D24*
X151170000Y-78500000D03*
X151170000Y-73500000D03*
D23*
X148470000Y-72500000D03*
D25*
X151170000Y-77300000D03*
X151170000Y-76650000D03*
X151170000Y-76000000D03*
X151170000Y-75350000D03*
X151170000Y-74700000D03*
D26*
X148470000Y-78900000D03*
D27*
X148470000Y-77000000D03*
X148470000Y-75000000D03*
D26*
X148470000Y-73100000D03*
%TD*%
M02*
