%TF.GenerationSoftware,KiCad,Pcbnew,8.0.3*%
%TF.CreationDate,2024-12-17T17:01:44-03:00*%
%TF.ProjectId,Sumo_Geral_Modular,53756d6f-5f47-4657-9261-6c5f4d6f6475,rev?*%
%TF.SameCoordinates,Original*%
%TF.FileFunction,Drillmap*%
%TF.FilePolarity,Positive*%
%FSLAX45Y45*%
G04 Gerber Fmt 4.5, Leading zero omitted, Abs format (unit mm)*
G04 Created by KiCad (PCBNEW 8.0.3) date 2024-12-17 17:01:44*
%MOMM*%
%LPD*%
G01*
G04 APERTURE LIST*
%ADD10C,0.050000*%
%ADD11C,0.200000*%
G04 APERTURE END LIST*
D10*
X19034000Y-5213000D02*
X14705000Y-5213000D01*
X15776000Y-11081000D02*
G75*
G02*
X15376000Y-11081000I-200000J0D01*
G01*
X15376000Y-11081000D02*
G75*
G02*
X15776000Y-11081000I200000J0D01*
G01*
X19034000Y-11506000D02*
X19034000Y-5213000D01*
X14705000Y-11506000D02*
X19034000Y-11506000D01*
X14705000Y-5213000D02*
X14705000Y-11506000D01*
X15551000Y-5557000D02*
G75*
G02*
X15151000Y-5557000I-200000J0D01*
G01*
X15151000Y-5557000D02*
G75*
G02*
X15551000Y-5557000I200000J0D01*
G01*
X18680000Y-5557000D02*
G75*
G02*
X18280000Y-5557000I-200000J0D01*
G01*
X18280000Y-5557000D02*
G75*
G02*
X18680000Y-5557000I200000J0D01*
G01*
D11*
X14963277Y-11819984D02*
X14963277Y-11619984D01*
X14963277Y-11619984D02*
X15010896Y-11619984D01*
X15010896Y-11619984D02*
X15039467Y-11629508D01*
X15039467Y-11629508D02*
X15058515Y-11648555D01*
X15058515Y-11648555D02*
X15068039Y-11667603D01*
X15068039Y-11667603D02*
X15077562Y-11705698D01*
X15077562Y-11705698D02*
X15077562Y-11734269D01*
X15077562Y-11734269D02*
X15068039Y-11772365D01*
X15068039Y-11772365D02*
X15058515Y-11791412D01*
X15058515Y-11791412D02*
X15039467Y-11810460D01*
X15039467Y-11810460D02*
X15010896Y-11819984D01*
X15010896Y-11819984D02*
X14963277Y-11819984D01*
X15163277Y-11819984D02*
X15163277Y-11686650D01*
X15163277Y-11724746D02*
X15172801Y-11705698D01*
X15172801Y-11705698D02*
X15182324Y-11696174D01*
X15182324Y-11696174D02*
X15201372Y-11686650D01*
X15201372Y-11686650D02*
X15220420Y-11686650D01*
X15287086Y-11819984D02*
X15287086Y-11686650D01*
X15287086Y-11619984D02*
X15277562Y-11629508D01*
X15277562Y-11629508D02*
X15287086Y-11639031D01*
X15287086Y-11639031D02*
X15296610Y-11629508D01*
X15296610Y-11629508D02*
X15287086Y-11619984D01*
X15287086Y-11619984D02*
X15287086Y-11639031D01*
X15410896Y-11819984D02*
X15391848Y-11810460D01*
X15391848Y-11810460D02*
X15382324Y-11791412D01*
X15382324Y-11791412D02*
X15382324Y-11619984D01*
X15515658Y-11819984D02*
X15496610Y-11810460D01*
X15496610Y-11810460D02*
X15487086Y-11791412D01*
X15487086Y-11791412D02*
X15487086Y-11619984D01*
X15744229Y-11819984D02*
X15744229Y-11619984D01*
X15744229Y-11619984D02*
X15810896Y-11762841D01*
X15810896Y-11762841D02*
X15877562Y-11619984D01*
X15877562Y-11619984D02*
X15877562Y-11819984D01*
X16058515Y-11819984D02*
X16058515Y-11715222D01*
X16058515Y-11715222D02*
X16048991Y-11696174D01*
X16048991Y-11696174D02*
X16029943Y-11686650D01*
X16029943Y-11686650D02*
X15991848Y-11686650D01*
X15991848Y-11686650D02*
X15972801Y-11696174D01*
X16058515Y-11810460D02*
X16039467Y-11819984D01*
X16039467Y-11819984D02*
X15991848Y-11819984D01*
X15991848Y-11819984D02*
X15972801Y-11810460D01*
X15972801Y-11810460D02*
X15963277Y-11791412D01*
X15963277Y-11791412D02*
X15963277Y-11772365D01*
X15963277Y-11772365D02*
X15972801Y-11753317D01*
X15972801Y-11753317D02*
X15991848Y-11743793D01*
X15991848Y-11743793D02*
X16039467Y-11743793D01*
X16039467Y-11743793D02*
X16058515Y-11734269D01*
X16153753Y-11686650D02*
X16153753Y-11886650D01*
X16153753Y-11696174D02*
X16172801Y-11686650D01*
X16172801Y-11686650D02*
X16210896Y-11686650D01*
X16210896Y-11686650D02*
X16229943Y-11696174D01*
X16229943Y-11696174D02*
X16239467Y-11705698D01*
X16239467Y-11705698D02*
X16248991Y-11724746D01*
X16248991Y-11724746D02*
X16248991Y-11781888D01*
X16248991Y-11781888D02*
X16239467Y-11800936D01*
X16239467Y-11800936D02*
X16229943Y-11810460D01*
X16229943Y-11810460D02*
X16210896Y-11819984D01*
X16210896Y-11819984D02*
X16172801Y-11819984D01*
X16172801Y-11819984D02*
X16153753Y-11810460D01*
X16334705Y-11800936D02*
X16344229Y-11810460D01*
X16344229Y-11810460D02*
X16334705Y-11819984D01*
X16334705Y-11819984D02*
X16325182Y-11810460D01*
X16325182Y-11810460D02*
X16334705Y-11800936D01*
X16334705Y-11800936D02*
X16334705Y-11819984D01*
X16334705Y-11696174D02*
X16344229Y-11705698D01*
X16344229Y-11705698D02*
X16334705Y-11715222D01*
X16334705Y-11715222D02*
X16325182Y-11705698D01*
X16325182Y-11705698D02*
X16334705Y-11696174D01*
X16334705Y-11696174D02*
X16334705Y-11715222D01*
M02*
