%TF.GenerationSoftware,KiCad,Pcbnew,8.0.3*%
%TF.CreationDate,2024-12-17T17:01:09-03:00*%
%TF.ProjectId,Sumo_Geral_Modular,53756d6f-5f47-4657-9261-6c5f4d6f6475,rev?*%
%TF.SameCoordinates,Original*%
%TF.FileFunction,Soldermask,Bot*%
%TF.FilePolarity,Negative*%
%FSLAX46Y46*%
G04 Gerber Fmt 4.6, Leading zero omitted, Abs format (unit mm)*
G04 Created by KiCad (PCBNEW 8.0.3) date 2024-12-17 17:01:09*
%MOMM*%
%LPD*%
G01*
G04 APERTURE LIST*
G04 Aperture macros list*
%AMRoundRect*
0 Rectangle with rounded corners*
0 $1 Rounding radius*
0 $2 $3 $4 $5 $6 $7 $8 $9 X,Y pos of 4 corners*
0 Add a 4 corners polygon primitive as box body*
4,1,4,$2,$3,$4,$5,$6,$7,$8,$9,$2,$3,0*
0 Add four circle primitives for the rounded corners*
1,1,$1+$1,$2,$3*
1,1,$1+$1,$4,$5*
1,1,$1+$1,$6,$7*
1,1,$1+$1,$8,$9*
0 Add four rect primitives between the rounded corners*
20,1,$1+$1,$2,$3,$4,$5,0*
20,1,$1+$1,$4,$5,$6,$7,0*
20,1,$1+$1,$6,$7,$8,$9,0*
20,1,$1+$1,$8,$9,$2,$3,0*%
G04 Aperture macros list end*
%ADD10R,1.700000X1.700000*%
%ADD11O,1.700000X1.700000*%
%ADD12RoundRect,0.250000X-0.750000X0.600000X-0.750000X-0.600000X0.750000X-0.600000X0.750000X0.600000X0*%
%ADD13O,2.000000X1.700000*%
%ADD14RoundRect,0.250000X0.725000X-0.600000X0.725000X0.600000X-0.725000X0.600000X-0.725000X-0.600000X0*%
%ADD15O,1.950000X1.700000*%
%ADD16RoundRect,0.250000X0.750000X-0.600000X0.750000X0.600000X-0.750000X0.600000X-0.750000X-0.600000X0*%
%ADD17R,1.500000X2.000000*%
%ADD18O,1.500000X2.000000*%
%ADD19R,1.350000X1.350000*%
%ADD20O,1.350000X1.350000*%
%ADD21RoundRect,0.250000X-0.725000X0.600000X-0.725000X-0.600000X0.725000X-0.600000X0.725000X0.600000X0*%
%ADD22RoundRect,0.250000X-0.625000X0.350000X-0.625000X-0.350000X0.625000X-0.350000X0.625000X0.350000X0*%
%ADD23O,1.750000X1.200000*%
%ADD24RoundRect,0.225000X0.225000X0.250000X-0.225000X0.250000X-0.225000X-0.250000X0.225000X-0.250000X0*%
%ADD25RoundRect,0.150000X0.587500X0.150000X-0.587500X0.150000X-0.587500X-0.150000X0.587500X-0.150000X0*%
%ADD26RoundRect,0.200000X0.200000X0.275000X-0.200000X0.275000X-0.200000X-0.275000X0.200000X-0.275000X0*%
%ADD27RoundRect,0.225000X0.250000X-0.225000X0.250000X0.225000X-0.250000X0.225000X-0.250000X-0.225000X0*%
%ADD28RoundRect,0.150000X-0.587500X-0.150000X0.587500X-0.150000X0.587500X0.150000X-0.587500X0.150000X0*%
%ADD29RoundRect,0.375000X0.625000X0.375000X-0.625000X0.375000X-0.625000X-0.375000X0.625000X-0.375000X0*%
%ADD30RoundRect,0.500000X0.500000X1.400000X-0.500000X1.400000X-0.500000X-1.400000X0.500000X-1.400000X0*%
%ADD31RoundRect,0.250000X0.600000X0.750000X-0.600000X0.750000X-0.600000X-0.750000X0.600000X-0.750000X0*%
%ADD32O,1.700000X2.000000*%
%ADD33RoundRect,0.218750X0.218750X0.256250X-0.218750X0.256250X-0.218750X-0.256250X0.218750X-0.256250X0*%
%ADD34RoundRect,0.200000X-0.275000X0.200000X-0.275000X-0.200000X0.275000X-0.200000X0.275000X0.200000X0*%
%ADD35RoundRect,0.218750X0.256250X-0.218750X0.256250X0.218750X-0.256250X0.218750X-0.256250X-0.218750X0*%
%ADD36RoundRect,0.200000X-0.200000X-0.275000X0.200000X-0.275000X0.200000X0.275000X-0.200000X0.275000X0*%
%ADD37RoundRect,0.150000X-0.825000X-0.150000X0.825000X-0.150000X0.825000X0.150000X-0.825000X0.150000X0*%
%ADD38RoundRect,0.225000X-0.225000X-0.250000X0.225000X-0.250000X0.225000X0.250000X-0.225000X0.250000X0*%
%ADD39RoundRect,0.250000X0.600000X0.725000X-0.600000X0.725000X-0.600000X-0.725000X0.600000X-0.725000X0*%
%ADD40O,1.700000X1.950000*%
%ADD41R,1.350000X0.400000*%
%ADD42O,1.550000X0.890000*%
%ADD43R,1.550000X1.200000*%
%ADD44O,0.950000X1.250000*%
%ADD45R,1.550000X1.500000*%
G04 APERTURE END LIST*
D10*
%TO.C,H_Bridge1*%
X156430000Y-82420000D03*
D11*
X156430000Y-84960000D03*
X156430000Y-87500000D03*
X156430000Y-90040000D03*
X156430000Y-92580000D03*
X156430000Y-95120000D03*
X156430000Y-97660000D03*
X156430000Y-100200000D03*
X171730000Y-100210000D03*
X171730000Y-97670000D03*
X171730000Y-95130000D03*
X171730000Y-92590000D03*
X171730000Y-90050000D03*
X171730000Y-87510000D03*
X171730000Y-84970000D03*
D10*
X171730000Y-82430000D03*
%TD*%
D12*
%TO.C,J8*%
X151160000Y-83520000D03*
D13*
X151160000Y-86020000D03*
%TD*%
D14*
%TO.C,J4*%
X186480000Y-75560000D03*
D15*
X186480000Y-73060000D03*
X186480000Y-70560000D03*
X186480000Y-68060000D03*
X186480000Y-65560000D03*
%TD*%
D16*
%TO.C,J9*%
X150100000Y-94650000D03*
D13*
X150100000Y-92150000D03*
%TD*%
D14*
%TO.C,J2*%
X186700000Y-111200000D03*
D15*
X186700000Y-108700000D03*
X186700000Y-106200000D03*
X186700000Y-103700000D03*
X186700000Y-101200000D03*
%TD*%
D17*
%TO.C,6_Pins_Button1*%
X148647500Y-105692500D03*
D18*
X152647500Y-99692500D03*
X152647500Y-105692500D03*
X148647500Y-99692500D03*
X150647500Y-105692500D03*
X150647500Y-99692500D03*
%TD*%
D19*
%TO.C,J6*%
X148680000Y-64320000D03*
D20*
X150680000Y-64320000D03*
X152680000Y-64320000D03*
%TD*%
D21*
%TO.C,J11*%
X162490000Y-93810000D03*
D15*
X162490000Y-96310000D03*
X162490000Y-98810000D03*
%TD*%
D19*
%TO.C,J7*%
X148650000Y-68820000D03*
D20*
X150650000Y-68820000D03*
X152650000Y-68820000D03*
%TD*%
D22*
%TO.C,J1*%
X150890000Y-110270000D03*
D23*
X150890000Y-112270000D03*
%TD*%
D14*
%TO.C,J3*%
X186700000Y-93160000D03*
D15*
X186700000Y-90660000D03*
X186700000Y-88160000D03*
X186700000Y-85660000D03*
X186700000Y-83160000D03*
%TD*%
D10*
%TO.C,J15*%
X156070000Y-60410000D03*
D11*
X156070000Y-62950000D03*
X156070000Y-65490000D03*
X156070000Y-68030000D03*
X156070000Y-70570000D03*
X156070000Y-73110000D03*
X156070000Y-75650000D03*
X156070000Y-78190000D03*
%TD*%
D19*
%TO.C,J5*%
X148670000Y-60120000D03*
D20*
X150670000Y-60120000D03*
X152670000Y-60120000D03*
%TD*%
D21*
%TO.C,J10*%
X162490000Y-82810000D03*
D15*
X162490000Y-85310000D03*
X162490000Y-87810000D03*
%TD*%
D24*
%TO.C,C2*%
X176070000Y-90090000D03*
X174520000Y-90090000D03*
%TD*%
D25*
%TO.C,Q1*%
X170930000Y-60000000D03*
X170930000Y-61900000D03*
X169055000Y-60950000D03*
%TD*%
D26*
%TO.C,R6*%
X171240000Y-63860000D03*
X169590000Y-63860000D03*
%TD*%
D27*
%TO.C,C7*%
X166820000Y-75835000D03*
X166820000Y-74285000D03*
%TD*%
D28*
%TO.C,Q2*%
X164625000Y-64860000D03*
X164625000Y-62960000D03*
X166500000Y-63910000D03*
%TD*%
D29*
%TO.C,U2*%
X181130000Y-81570000D03*
X181130000Y-83870000D03*
D30*
X174830000Y-83870000D03*
D29*
X181130000Y-86170000D03*
%TD*%
D31*
%TO.C,J14*%
X163430000Y-105290000D03*
D32*
X160930000Y-105290000D03*
%TD*%
D33*
%TO.C,D4*%
X179435000Y-88440000D03*
X177860000Y-88440000D03*
%TD*%
D24*
%TO.C,C4*%
X183240000Y-79350000D03*
X181690000Y-79350000D03*
%TD*%
D34*
%TO.C,R4*%
X170340000Y-72575000D03*
X170340000Y-74225000D03*
%TD*%
D35*
%TO.C,D2*%
X153340000Y-79697500D03*
X153340000Y-78122500D03*
%TD*%
D29*
%TO.C,U1*%
X181300000Y-92470000D03*
X181300000Y-94770000D03*
D30*
X175000000Y-94770000D03*
D29*
X181300000Y-97070000D03*
%TD*%
D36*
%TO.C,R7*%
X164240000Y-61020000D03*
X165890000Y-61020000D03*
%TD*%
D37*
%TO.C,U3*%
X159650000Y-75880000D03*
X159650000Y-74610000D03*
X159650000Y-73340000D03*
X159650000Y-72070000D03*
X159650000Y-70800000D03*
X159650000Y-69530000D03*
X159650000Y-68260000D03*
X159650000Y-66990000D03*
X164600000Y-66990000D03*
X164600000Y-68260000D03*
X164600000Y-69530000D03*
X164600000Y-70800000D03*
X164600000Y-72070000D03*
X164600000Y-73340000D03*
X164600000Y-74610000D03*
X164600000Y-75880000D03*
%TD*%
D38*
%TO.C,C3*%
X181197500Y-88410000D03*
X182747500Y-88410000D03*
%TD*%
D24*
%TO.C,C1*%
X181245000Y-99910000D03*
X179695000Y-99910000D03*
%TD*%
D39*
%TO.C,J13*%
X179910000Y-105350000D03*
D40*
X177410000Y-105350000D03*
X174910000Y-105350000D03*
X172410000Y-105350000D03*
X169910000Y-105350000D03*
%TD*%
D34*
%TO.C,R5*%
X168520000Y-70815000D03*
X168520000Y-72465000D03*
%TD*%
D41*
%TO.C,J12*%
X151170000Y-77300000D03*
X151170000Y-76650000D03*
X151170000Y-76000000D03*
X151170000Y-75350000D03*
X151170000Y-74700000D03*
D42*
X148470000Y-79500000D03*
D43*
X148470000Y-78900000D03*
D44*
X151170000Y-78500000D03*
D45*
X148470000Y-77000000D03*
X148470000Y-75000000D03*
D44*
X151170000Y-73500000D03*
D43*
X148470000Y-73100000D03*
D42*
X148470000Y-72500000D03*
%TD*%
M02*
