M48
; DRILL file {KiCad 8.0.3} date 2024-12-17T17:01:41-0300
; FORMAT={-:-/ absolute / metric / decimal}
; #@! TF.CreationDate,2024-12-17T17:01:41-03:00
; #@! TF.GenerationSoftware,Kicad,Pcbnew,8.0.3
; #@! TF.FileFunction,Plated,1,2,PTH
FMAT,2
METRIC
; #@! TA.AperFunction,Plated,PTH,ComponentDrill
T1C0.200
; #@! TA.AperFunction,Plated,PTH,ViaDrill
T2C0.300
; #@! TA.AperFunction,Plated,PTH,ComponentDrill
T3C0.500
; #@! TA.AperFunction,Plated,PTH,ComponentDrill
T4C0.550
; #@! TA.AperFunction,Plated,PTH,ComponentDrill
T5C0.750
; #@! TA.AperFunction,Plated,PTH,ComponentDrill
T6C0.800
; #@! TA.AperFunction,Plated,PTH,ComponentDrill
T7C0.950
; #@! TA.AperFunction,Plated,PTH,ComponentDrill
T8C1.000
%
G90
G05
T1
X168.655Y-66.407
X168.655Y-67.932
X169.417Y-65.645
X169.417Y-67.17
X169.417Y-68.695
X170.18Y-66.407
X170.18Y-67.932
X170.942Y-65.645
X170.942Y-67.17
X170.942Y-68.695
X171.705Y-66.407
X171.705Y-67.932
T2
X155.47Y-80.81
X156.22Y-58.64
X156.7Y-80.83
X157.63Y-58.64
X157.71Y-79.5
X159.5Y-63.78
X159.55Y-60.46
X159.55Y-77.35
X161.55Y-58.68
X163.72Y-63.92
X164.84Y-63.9
X166.45Y-62.37
X166.66Y-66.3
X166.66Y-67.352
X166.66Y-68.403
X166.66Y-69.455
X166.66Y-70.507
X166.66Y-71.558
X166.66Y-72.61
X167.11Y-79.88
X168.11Y-62.73
X168.97Y-61.85
X169.35Y-75.01
X169.39Y-73.49
X169.6Y-71.61
X171.15Y-108.98
X171.7Y-74.96
X172.16Y-72.63
X172.18Y-73.76
X172.95Y-59.92
X172.95Y-61.273
X174.41Y-59.92
X174.41Y-61.273
X174.41Y-62.627
X175.85Y-68.96
X175.87Y-59.92
X175.87Y-61.273
X176.591Y-70.0
X177.33Y-59.92
X177.67Y-63.75
X177.91Y-64.93
X178.19Y-71.24
X178.31Y-68.78
X179.5Y-96.04
X179.54Y-93.77
X180.05Y-98.24
X182.17Y-63.93
X183.28Y-94.86
X184.46Y-71.37
X184.93Y-96.24
X185.2Y-77.6
X188.21Y-74.36
X188.36Y-85.58
T5
X150.89Y-110.27
X150.89Y-112.27
T6
X148.65Y-68.82
X148.67Y-60.12
X148.68Y-64.32
X150.65Y-68.82
X150.67Y-60.12
X150.68Y-64.32
X152.65Y-68.82
X152.67Y-60.12
X152.68Y-64.32
T7
X162.49Y-82.81
X162.49Y-85.31
X162.49Y-87.81
X162.49Y-93.81
X162.49Y-96.31
X162.49Y-98.81
X169.91Y-105.35
X172.41Y-105.35
X174.91Y-105.35
X177.41Y-105.35
X179.91Y-105.35
X186.48Y-65.56
X186.48Y-68.06
X186.48Y-70.56
X186.48Y-73.06
X186.48Y-75.56
X186.7Y-83.16
X186.7Y-85.66
X186.7Y-88.16
X186.7Y-90.66
X186.7Y-93.16
X186.7Y-101.2
X186.7Y-103.7
X186.7Y-106.2
X186.7Y-108.7
X186.7Y-111.2
T8
X148.647Y-99.692
X148.647Y-105.692
X150.1Y-92.15
X150.1Y-94.65
X150.647Y-99.692
X150.647Y-105.692
X151.16Y-83.52
X151.16Y-86.02
X152.647Y-99.692
X152.647Y-105.692
X156.07Y-60.41
X156.07Y-62.95
X156.07Y-65.49
X156.07Y-68.03
X156.07Y-70.57
X156.07Y-73.11
X156.07Y-75.65
X156.07Y-78.19
X156.43Y-82.42
X156.43Y-84.96
X156.43Y-87.5
X156.43Y-90.04
X156.43Y-92.58
X156.43Y-95.12
X156.43Y-97.66
X156.43Y-100.2
X160.93Y-105.29
X163.43Y-105.29
X171.73Y-82.43
X171.73Y-84.97
X171.73Y-87.51
X171.73Y-90.05
X171.73Y-92.59
X171.73Y-95.13
X171.73Y-97.67
X171.73Y-100.21
T3
G00X148.145Y-72.5
M15
G01X148.795Y-72.5
M16
G05
G00X148.145Y-79.5
M15
G01X148.795Y-79.5
M16
G05
T4
G00X151.17Y-73.65
M15
G01X151.17Y-73.35
M16
G05
G00X151.17Y-78.65
M15
G01X151.17Y-78.35
M16
G05
M30
