%TF.GenerationSoftware,KiCad,Pcbnew,8.0.3*%
%TF.CreationDate,2024-12-17T17:01:09-03:00*%
%TF.ProjectId,Sumo_Geral_Modular,53756d6f-5f47-4657-9261-6c5f4d6f6475,rev?*%
%TF.SameCoordinates,Original*%
%TF.FileFunction,Legend,Top*%
%TF.FilePolarity,Positive*%
%FSLAX46Y46*%
G04 Gerber Fmt 4.6, Leading zero omitted, Abs format (unit mm)*
G04 Created by KiCad (PCBNEW 8.0.3) date 2024-12-17 17:01:09*
%MOMM*%
%LPD*%
G01*
G04 APERTURE LIST*
%ADD10C,0.150000*%
%ADD11C,0.100000*%
%ADD12C,0.200000*%
%ADD13C,0.120000*%
G04 APERTURE END LIST*
D10*
X166280951Y-54884819D02*
X166280951Y-55599104D01*
X166280951Y-55599104D02*
X166233332Y-55741961D01*
X166233332Y-55741961D02*
X166138094Y-55837200D01*
X166138094Y-55837200D02*
X165995237Y-55884819D01*
X165995237Y-55884819D02*
X165899999Y-55884819D01*
X167233332Y-55884819D02*
X166757142Y-55884819D01*
X166757142Y-55884819D02*
X166757142Y-54884819D01*
X168138094Y-55789580D02*
X168090475Y-55837200D01*
X168090475Y-55837200D02*
X167947618Y-55884819D01*
X167947618Y-55884819D02*
X167852380Y-55884819D01*
X167852380Y-55884819D02*
X167709523Y-55837200D01*
X167709523Y-55837200D02*
X167614285Y-55741961D01*
X167614285Y-55741961D02*
X167566666Y-55646723D01*
X167566666Y-55646723D02*
X167519047Y-55456247D01*
X167519047Y-55456247D02*
X167519047Y-55313390D01*
X167519047Y-55313390D02*
X167566666Y-55122914D01*
X167566666Y-55122914D02*
X167614285Y-55027676D01*
X167614285Y-55027676D02*
X167709523Y-54932438D01*
X167709523Y-54932438D02*
X167852380Y-54884819D01*
X167852380Y-54884819D02*
X167947618Y-54884819D01*
X167947618Y-54884819D02*
X168090475Y-54932438D01*
X168090475Y-54932438D02*
X168138094Y-54980057D01*
X168852380Y-54884819D02*
X168852380Y-55599104D01*
X168852380Y-55599104D02*
X168804761Y-55741961D01*
X168804761Y-55741961D02*
X168709523Y-55837200D01*
X168709523Y-55837200D02*
X168566666Y-55884819D01*
X168566666Y-55884819D02*
X168471428Y-55884819D01*
X169804761Y-55884819D02*
X169328571Y-55884819D01*
X169328571Y-55884819D02*
X169328571Y-54884819D01*
X170709523Y-55789580D02*
X170661904Y-55837200D01*
X170661904Y-55837200D02*
X170519047Y-55884819D01*
X170519047Y-55884819D02*
X170423809Y-55884819D01*
X170423809Y-55884819D02*
X170280952Y-55837200D01*
X170280952Y-55837200D02*
X170185714Y-55741961D01*
X170185714Y-55741961D02*
X170138095Y-55646723D01*
X170138095Y-55646723D02*
X170090476Y-55456247D01*
X170090476Y-55456247D02*
X170090476Y-55313390D01*
X170090476Y-55313390D02*
X170138095Y-55122914D01*
X170138095Y-55122914D02*
X170185714Y-55027676D01*
X170185714Y-55027676D02*
X170280952Y-54932438D01*
X170280952Y-54932438D02*
X170423809Y-54884819D01*
X170423809Y-54884819D02*
X170519047Y-54884819D01*
X170519047Y-54884819D02*
X170661904Y-54932438D01*
X170661904Y-54932438D02*
X170709523Y-54980057D01*
X171423809Y-54884819D02*
X171423809Y-55599104D01*
X171423809Y-55599104D02*
X171376190Y-55741961D01*
X171376190Y-55741961D02*
X171280952Y-55837200D01*
X171280952Y-55837200D02*
X171138095Y-55884819D01*
X171138095Y-55884819D02*
X171042857Y-55884819D01*
X172376190Y-55884819D02*
X171900000Y-55884819D01*
X171900000Y-55884819D02*
X171900000Y-54884819D01*
X173280952Y-55789580D02*
X173233333Y-55837200D01*
X173233333Y-55837200D02*
X173090476Y-55884819D01*
X173090476Y-55884819D02*
X172995238Y-55884819D01*
X172995238Y-55884819D02*
X172852381Y-55837200D01*
X172852381Y-55837200D02*
X172757143Y-55741961D01*
X172757143Y-55741961D02*
X172709524Y-55646723D01*
X172709524Y-55646723D02*
X172661905Y-55456247D01*
X172661905Y-55456247D02*
X172661905Y-55313390D01*
X172661905Y-55313390D02*
X172709524Y-55122914D01*
X172709524Y-55122914D02*
X172757143Y-55027676D01*
X172757143Y-55027676D02*
X172852381Y-54932438D01*
X172852381Y-54932438D02*
X172995238Y-54884819D01*
X172995238Y-54884819D02*
X173090476Y-54884819D01*
X173090476Y-54884819D02*
X173233333Y-54932438D01*
X173233333Y-54932438D02*
X173280952Y-54980057D01*
X173995238Y-54884819D02*
X173995238Y-55599104D01*
X173995238Y-55599104D02*
X173947619Y-55741961D01*
X173947619Y-55741961D02*
X173852381Y-55837200D01*
X173852381Y-55837200D02*
X173709524Y-55884819D01*
X173709524Y-55884819D02*
X173614286Y-55884819D01*
X174947619Y-55884819D02*
X174471429Y-55884819D01*
X174471429Y-55884819D02*
X174471429Y-54884819D01*
X175852381Y-55789580D02*
X175804762Y-55837200D01*
X175804762Y-55837200D02*
X175661905Y-55884819D01*
X175661905Y-55884819D02*
X175566667Y-55884819D01*
X175566667Y-55884819D02*
X175423810Y-55837200D01*
X175423810Y-55837200D02*
X175328572Y-55741961D01*
X175328572Y-55741961D02*
X175280953Y-55646723D01*
X175280953Y-55646723D02*
X175233334Y-55456247D01*
X175233334Y-55456247D02*
X175233334Y-55313390D01*
X175233334Y-55313390D02*
X175280953Y-55122914D01*
X175280953Y-55122914D02*
X175328572Y-55027676D01*
X175328572Y-55027676D02*
X175423810Y-54932438D01*
X175423810Y-54932438D02*
X175566667Y-54884819D01*
X175566667Y-54884819D02*
X175661905Y-54884819D01*
X175661905Y-54884819D02*
X175804762Y-54932438D01*
X175804762Y-54932438D02*
X175852381Y-54980057D01*
D11*
X161310000Y-107550000D02*
X161310000Y-114870000D01*
X147620000Y-107550000D02*
X161310000Y-107550000D01*
X175670000Y-107810000D02*
X175670000Y-114200000D01*
D12*
X155165600Y-58592707D02*
X155165600Y-57678422D01*
X155622742Y-58135564D02*
X154708457Y-58135564D01*
X153967292Y-113874171D02*
X154138720Y-113931314D01*
X154138720Y-113931314D02*
X154195863Y-113988457D01*
X154195863Y-113988457D02*
X154253006Y-114102742D01*
X154253006Y-114102742D02*
X154253006Y-114274171D01*
X154253006Y-114274171D02*
X154195863Y-114388457D01*
X154195863Y-114388457D02*
X154138720Y-114445600D01*
X154138720Y-114445600D02*
X154024435Y-114502742D01*
X154024435Y-114502742D02*
X153567292Y-114502742D01*
X153567292Y-114502742D02*
X153567292Y-113302742D01*
X153567292Y-113302742D02*
X153967292Y-113302742D01*
X153967292Y-113302742D02*
X154081578Y-113359885D01*
X154081578Y-113359885D02*
X154138720Y-113417028D01*
X154138720Y-113417028D02*
X154195863Y-113531314D01*
X154195863Y-113531314D02*
X154195863Y-113645600D01*
X154195863Y-113645600D02*
X154138720Y-113759885D01*
X154138720Y-113759885D02*
X154081578Y-113817028D01*
X154081578Y-113817028D02*
X153967292Y-113874171D01*
X153967292Y-113874171D02*
X153567292Y-113874171D01*
X154710149Y-114159885D02*
X155281578Y-114159885D01*
X154595863Y-114502742D02*
X154995863Y-113302742D01*
X154995863Y-113302742D02*
X155395863Y-114502742D01*
X155624434Y-113302742D02*
X156310149Y-113302742D01*
X155967291Y-114502742D02*
X155967291Y-113302742D01*
X156538720Y-113302742D02*
X157224435Y-113302742D01*
X156881577Y-114502742D02*
X156881577Y-113302742D01*
X157624435Y-113874171D02*
X158024435Y-113874171D01*
X158195863Y-114502742D02*
X157624435Y-114502742D01*
X157624435Y-114502742D02*
X157624435Y-113302742D01*
X157624435Y-113302742D02*
X158195863Y-113302742D01*
X159395863Y-114502742D02*
X158995863Y-113931314D01*
X158710149Y-114502742D02*
X158710149Y-113302742D01*
X158710149Y-113302742D02*
X159167292Y-113302742D01*
X159167292Y-113302742D02*
X159281577Y-113359885D01*
X159281577Y-113359885D02*
X159338720Y-113417028D01*
X159338720Y-113417028D02*
X159395863Y-113531314D01*
X159395863Y-113531314D02*
X159395863Y-113702742D01*
X159395863Y-113702742D02*
X159338720Y-113817028D01*
X159338720Y-113817028D02*
X159281577Y-113874171D01*
X159281577Y-113874171D02*
X159167292Y-113931314D01*
X159167292Y-113931314D02*
X158710149Y-113931314D01*
X160138720Y-113931314D02*
X160138720Y-114502742D01*
X159738720Y-113302742D02*
X160138720Y-113931314D01*
X160138720Y-113931314D02*
X160538720Y-113302742D01*
D11*
X176557847Y-87407068D02*
X176595942Y-87292782D01*
X176595942Y-87292782D02*
X176634038Y-87254687D01*
X176634038Y-87254687D02*
X176710228Y-87216591D01*
X176710228Y-87216591D02*
X176824514Y-87216591D01*
X176824514Y-87216591D02*
X176900704Y-87254687D01*
X176900704Y-87254687D02*
X176938800Y-87292782D01*
X176938800Y-87292782D02*
X176976895Y-87368972D01*
X176976895Y-87368972D02*
X176976895Y-87673734D01*
X176976895Y-87673734D02*
X176176895Y-87673734D01*
X176176895Y-87673734D02*
X176176895Y-87407068D01*
X176176895Y-87407068D02*
X176214990Y-87330877D01*
X176214990Y-87330877D02*
X176253085Y-87292782D01*
X176253085Y-87292782D02*
X176329276Y-87254687D01*
X176329276Y-87254687D02*
X176405466Y-87254687D01*
X176405466Y-87254687D02*
X176481657Y-87292782D01*
X176481657Y-87292782D02*
X176519752Y-87330877D01*
X176519752Y-87330877D02*
X176557847Y-87407068D01*
X176557847Y-87407068D02*
X176557847Y-87673734D01*
X176176895Y-86721353D02*
X176176895Y-86568972D01*
X176176895Y-86568972D02*
X176214990Y-86492782D01*
X176214990Y-86492782D02*
X176291180Y-86416591D01*
X176291180Y-86416591D02*
X176443561Y-86378496D01*
X176443561Y-86378496D02*
X176710228Y-86378496D01*
X176710228Y-86378496D02*
X176862609Y-86416591D01*
X176862609Y-86416591D02*
X176938800Y-86492782D01*
X176938800Y-86492782D02*
X176976895Y-86568972D01*
X176976895Y-86568972D02*
X176976895Y-86721353D01*
X176976895Y-86721353D02*
X176938800Y-86797544D01*
X176938800Y-86797544D02*
X176862609Y-86873734D01*
X176862609Y-86873734D02*
X176710228Y-86911830D01*
X176710228Y-86911830D02*
X176443561Y-86911830D01*
X176443561Y-86911830D02*
X176291180Y-86873734D01*
X176291180Y-86873734D02*
X176214990Y-86797544D01*
X176214990Y-86797544D02*
X176176895Y-86721353D01*
X176176895Y-85883258D02*
X176176895Y-85730877D01*
X176176895Y-85730877D02*
X176214990Y-85654687D01*
X176214990Y-85654687D02*
X176291180Y-85578496D01*
X176291180Y-85578496D02*
X176443561Y-85540401D01*
X176443561Y-85540401D02*
X176710228Y-85540401D01*
X176710228Y-85540401D02*
X176862609Y-85578496D01*
X176862609Y-85578496D02*
X176938800Y-85654687D01*
X176938800Y-85654687D02*
X176976895Y-85730877D01*
X176976895Y-85730877D02*
X176976895Y-85883258D01*
X176976895Y-85883258D02*
X176938800Y-85959449D01*
X176938800Y-85959449D02*
X176862609Y-86035639D01*
X176862609Y-86035639D02*
X176710228Y-86073735D01*
X176710228Y-86073735D02*
X176443561Y-86073735D01*
X176443561Y-86073735D02*
X176291180Y-86035639D01*
X176291180Y-86035639D02*
X176214990Y-85959449D01*
X176214990Y-85959449D02*
X176176895Y-85883258D01*
X176176895Y-85311830D02*
X176176895Y-84854687D01*
X176976895Y-85083259D02*
X176176895Y-85083259D01*
D10*
X149921541Y-70289819D02*
X150540588Y-70289819D01*
X150540588Y-70289819D02*
X150207255Y-70670771D01*
X150207255Y-70670771D02*
X150350112Y-70670771D01*
X150350112Y-70670771D02*
X150445350Y-70718390D01*
X150445350Y-70718390D02*
X150492969Y-70766009D01*
X150492969Y-70766009D02*
X150540588Y-70861247D01*
X150540588Y-70861247D02*
X150540588Y-71099342D01*
X150540588Y-71099342D02*
X150492969Y-71194580D01*
X150492969Y-71194580D02*
X150445350Y-71242200D01*
X150445350Y-71242200D02*
X150350112Y-71289819D01*
X150350112Y-71289819D02*
X150064398Y-71289819D01*
X150064398Y-71289819D02*
X149969160Y-71242200D01*
X149969160Y-71242200D02*
X149921541Y-71194580D01*
X151445350Y-70289819D02*
X150969160Y-70289819D01*
X150969160Y-70289819D02*
X150921541Y-70766009D01*
X150921541Y-70766009D02*
X150969160Y-70718390D01*
X150969160Y-70718390D02*
X151064398Y-70670771D01*
X151064398Y-70670771D02*
X151302493Y-70670771D01*
X151302493Y-70670771D02*
X151397731Y-70718390D01*
X151397731Y-70718390D02*
X151445350Y-70766009D01*
X151445350Y-70766009D02*
X151492969Y-70861247D01*
X151492969Y-70861247D02*
X151492969Y-71099342D01*
X151492969Y-71099342D02*
X151445350Y-71194580D01*
X151445350Y-71194580D02*
X151397731Y-71242200D01*
X151397731Y-71242200D02*
X151302493Y-71289819D01*
X151302493Y-71289819D02*
X151064398Y-71289819D01*
X151064398Y-71289819D02*
X150969160Y-71242200D01*
X150969160Y-71242200D02*
X150921541Y-71194580D01*
D12*
X156465600Y-80672707D02*
X156465600Y-79758422D01*
X156922742Y-80215564D02*
X156008457Y-80215564D01*
X148715600Y-71122707D02*
X148715600Y-70208422D01*
X149172742Y-70665564D02*
X148258457Y-70665564D01*
X151072707Y-61904400D02*
X150158422Y-61904400D01*
X152137292Y-62702742D02*
X152137292Y-61502742D01*
X153394435Y-62702742D02*
X152994435Y-62131314D01*
X152708721Y-62702742D02*
X152708721Y-61502742D01*
X152708721Y-61502742D02*
X153165864Y-61502742D01*
X153165864Y-61502742D02*
X153280149Y-61559885D01*
X153280149Y-61559885D02*
X153337292Y-61617028D01*
X153337292Y-61617028D02*
X153394435Y-61731314D01*
X153394435Y-61731314D02*
X153394435Y-61902742D01*
X153394435Y-61902742D02*
X153337292Y-62017028D01*
X153337292Y-62017028D02*
X153280149Y-62074171D01*
X153280149Y-62074171D02*
X153165864Y-62131314D01*
X153165864Y-62131314D02*
X152708721Y-62131314D01*
D10*
X175313445Y-82924295D02*
X175313445Y-83114771D01*
X175122969Y-83038580D02*
X175313445Y-83114771D01*
X175313445Y-83114771D02*
X175503922Y-83038580D01*
X175199160Y-83267152D02*
X175313445Y-83114771D01*
X175313445Y-83114771D02*
X175427731Y-83267152D01*
X171950952Y-108681009D02*
X172093809Y-108728628D01*
X172093809Y-108728628D02*
X172141428Y-108776247D01*
X172141428Y-108776247D02*
X172189047Y-108871485D01*
X172189047Y-108871485D02*
X172189047Y-109014342D01*
X172189047Y-109014342D02*
X172141428Y-109109580D01*
X172141428Y-109109580D02*
X172093809Y-109157200D01*
X172093809Y-109157200D02*
X171998571Y-109204819D01*
X171998571Y-109204819D02*
X171617619Y-109204819D01*
X171617619Y-109204819D02*
X171617619Y-108204819D01*
X171617619Y-108204819D02*
X171950952Y-108204819D01*
X171950952Y-108204819D02*
X172046190Y-108252438D01*
X172046190Y-108252438D02*
X172093809Y-108300057D01*
X172093809Y-108300057D02*
X172141428Y-108395295D01*
X172141428Y-108395295D02*
X172141428Y-108490533D01*
X172141428Y-108490533D02*
X172093809Y-108585771D01*
X172093809Y-108585771D02*
X172046190Y-108633390D01*
X172046190Y-108633390D02*
X171950952Y-108681009D01*
X171950952Y-108681009D02*
X171617619Y-108681009D01*
X172570000Y-108919104D02*
X173046190Y-108919104D01*
X172474762Y-109204819D02*
X172808095Y-108204819D01*
X172808095Y-108204819D02*
X173141428Y-109204819D01*
X173331905Y-108204819D02*
X173903333Y-108204819D01*
X173617619Y-109204819D02*
X173617619Y-108204819D01*
X174093810Y-108204819D02*
X174665238Y-108204819D01*
X174379524Y-109204819D02*
X174379524Y-108204819D01*
X177091905Y-108164819D02*
X177710952Y-108164819D01*
X177710952Y-108164819D02*
X177377619Y-108545771D01*
X177377619Y-108545771D02*
X177520476Y-108545771D01*
X177520476Y-108545771D02*
X177615714Y-108593390D01*
X177615714Y-108593390D02*
X177663333Y-108641009D01*
X177663333Y-108641009D02*
X177710952Y-108736247D01*
X177710952Y-108736247D02*
X177710952Y-108974342D01*
X177710952Y-108974342D02*
X177663333Y-109069580D01*
X177663333Y-109069580D02*
X177615714Y-109117200D01*
X177615714Y-109117200D02*
X177520476Y-109164819D01*
X177520476Y-109164819D02*
X177234762Y-109164819D01*
X177234762Y-109164819D02*
X177139524Y-109117200D01*
X177139524Y-109117200D02*
X177091905Y-109069580D01*
X177996667Y-108164819D02*
X178330000Y-109164819D01*
X178330000Y-109164819D02*
X178663333Y-108164819D01*
X178901429Y-108164819D02*
X179520476Y-108164819D01*
X179520476Y-108164819D02*
X179187143Y-108545771D01*
X179187143Y-108545771D02*
X179330000Y-108545771D01*
X179330000Y-108545771D02*
X179425238Y-108593390D01*
X179425238Y-108593390D02*
X179472857Y-108641009D01*
X179472857Y-108641009D02*
X179520476Y-108736247D01*
X179520476Y-108736247D02*
X179520476Y-108974342D01*
X179520476Y-108974342D02*
X179472857Y-109069580D01*
X179472857Y-109069580D02*
X179425238Y-109117200D01*
X179425238Y-109117200D02*
X179330000Y-109164819D01*
X179330000Y-109164819D02*
X179044286Y-109164819D01*
X179044286Y-109164819D02*
X178949048Y-109117200D01*
X178949048Y-109117200D02*
X178901429Y-109069580D01*
D12*
X153885600Y-108662707D02*
X153885600Y-107748422D01*
X154342742Y-108205564D02*
X153428457Y-108205564D01*
X153242707Y-70804400D02*
X152328422Y-70804400D01*
D10*
X167375247Y-97830839D02*
X167375247Y-97564173D01*
X167794295Y-97449887D02*
X167794295Y-97830839D01*
X167794295Y-97830839D02*
X166994295Y-97830839D01*
X166994295Y-97830839D02*
X166994295Y-97449887D01*
X167756200Y-97145125D02*
X167794295Y-97030839D01*
X167794295Y-97030839D02*
X167794295Y-96840363D01*
X167794295Y-96840363D02*
X167756200Y-96764172D01*
X167756200Y-96764172D02*
X167718104Y-96726077D01*
X167718104Y-96726077D02*
X167641914Y-96687982D01*
X167641914Y-96687982D02*
X167565723Y-96687982D01*
X167565723Y-96687982D02*
X167489533Y-96726077D01*
X167489533Y-96726077D02*
X167451438Y-96764172D01*
X167451438Y-96764172D02*
X167413342Y-96840363D01*
X167413342Y-96840363D02*
X167375247Y-96992744D01*
X167375247Y-96992744D02*
X167337152Y-97068934D01*
X167337152Y-97068934D02*
X167299057Y-97107029D01*
X167299057Y-97107029D02*
X167222866Y-97145125D01*
X167222866Y-97145125D02*
X167146676Y-97145125D01*
X167146676Y-97145125D02*
X167070485Y-97107029D01*
X167070485Y-97107029D02*
X167032390Y-97068934D01*
X167032390Y-97068934D02*
X166994295Y-96992744D01*
X166994295Y-96992744D02*
X166994295Y-96802267D01*
X166994295Y-96802267D02*
X167032390Y-96687982D01*
X167718104Y-95887981D02*
X167756200Y-95926077D01*
X167756200Y-95926077D02*
X167794295Y-96040362D01*
X167794295Y-96040362D02*
X167794295Y-96116553D01*
X167794295Y-96116553D02*
X167756200Y-96230839D01*
X167756200Y-96230839D02*
X167680009Y-96307029D01*
X167680009Y-96307029D02*
X167603819Y-96345124D01*
X167603819Y-96345124D02*
X167451438Y-96383220D01*
X167451438Y-96383220D02*
X167337152Y-96383220D01*
X167337152Y-96383220D02*
X167184771Y-96345124D01*
X167184771Y-96345124D02*
X167108580Y-96307029D01*
X167108580Y-96307029D02*
X167032390Y-96230839D01*
X167032390Y-96230839D02*
X166994295Y-96116553D01*
X166994295Y-96116553D02*
X166994295Y-96040362D01*
X166994295Y-96040362D02*
X167032390Y-95926077D01*
X167032390Y-95926077D02*
X167070485Y-95887981D01*
X167489533Y-95545124D02*
X167489533Y-94935601D01*
X167070485Y-94592744D02*
X167032390Y-94554648D01*
X167032390Y-94554648D02*
X166994295Y-94478458D01*
X166994295Y-94478458D02*
X166994295Y-94287982D01*
X166994295Y-94287982D02*
X167032390Y-94211791D01*
X167032390Y-94211791D02*
X167070485Y-94173696D01*
X167070485Y-94173696D02*
X167146676Y-94135601D01*
X167146676Y-94135601D02*
X167222866Y-94135601D01*
X167222866Y-94135601D02*
X167337152Y-94173696D01*
X167337152Y-94173696D02*
X167794295Y-94630839D01*
X167794295Y-94630839D02*
X167794295Y-94135601D01*
X154574295Y-106548458D02*
X154574295Y-106396077D01*
X154574295Y-106396077D02*
X154612390Y-106319887D01*
X154612390Y-106319887D02*
X154688580Y-106243696D01*
X154688580Y-106243696D02*
X154840961Y-106205601D01*
X154840961Y-106205601D02*
X155107628Y-106205601D01*
X155107628Y-106205601D02*
X155260009Y-106243696D01*
X155260009Y-106243696D02*
X155336200Y-106319887D01*
X155336200Y-106319887D02*
X155374295Y-106396077D01*
X155374295Y-106396077D02*
X155374295Y-106548458D01*
X155374295Y-106548458D02*
X155336200Y-106624649D01*
X155336200Y-106624649D02*
X155260009Y-106700839D01*
X155260009Y-106700839D02*
X155107628Y-106738935D01*
X155107628Y-106738935D02*
X154840961Y-106738935D01*
X154840961Y-106738935D02*
X154688580Y-106700839D01*
X154688580Y-106700839D02*
X154612390Y-106624649D01*
X154612390Y-106624649D02*
X154574295Y-106548458D01*
X155374295Y-105862744D02*
X154574295Y-105862744D01*
X154574295Y-105862744D02*
X155374295Y-105405601D01*
X155374295Y-105405601D02*
X154574295Y-105405601D01*
X154536200Y-104453221D02*
X155564771Y-105138935D01*
X154574295Y-104034173D02*
X154574295Y-103881792D01*
X154574295Y-103881792D02*
X154612390Y-103805602D01*
X154612390Y-103805602D02*
X154688580Y-103729411D01*
X154688580Y-103729411D02*
X154840961Y-103691316D01*
X154840961Y-103691316D02*
X155107628Y-103691316D01*
X155107628Y-103691316D02*
X155260009Y-103729411D01*
X155260009Y-103729411D02*
X155336200Y-103805602D01*
X155336200Y-103805602D02*
X155374295Y-103881792D01*
X155374295Y-103881792D02*
X155374295Y-104034173D01*
X155374295Y-104034173D02*
X155336200Y-104110364D01*
X155336200Y-104110364D02*
X155260009Y-104186554D01*
X155260009Y-104186554D02*
X155107628Y-104224650D01*
X155107628Y-104224650D02*
X154840961Y-104224650D01*
X154840961Y-104224650D02*
X154688580Y-104186554D01*
X154688580Y-104186554D02*
X154612390Y-104110364D01*
X154612390Y-104110364D02*
X154574295Y-104034173D01*
X154955247Y-103081793D02*
X154955247Y-103348459D01*
X155374295Y-103348459D02*
X154574295Y-103348459D01*
X154574295Y-103348459D02*
X154574295Y-102967507D01*
X154955247Y-102396079D02*
X154955247Y-102662745D01*
X155374295Y-102662745D02*
X154574295Y-102662745D01*
X154574295Y-102662745D02*
X154574295Y-102281793D01*
X178373445Y-111824295D02*
X178373445Y-112014771D01*
X178182969Y-111938580D02*
X178373445Y-112014771D01*
X178373445Y-112014771D02*
X178563922Y-111938580D01*
X178259160Y-112167152D02*
X178373445Y-112014771D01*
X178373445Y-112014771D02*
X178487731Y-112167152D01*
X149921541Y-65819819D02*
X150540588Y-65819819D01*
X150540588Y-65819819D02*
X150207255Y-66200771D01*
X150207255Y-66200771D02*
X150350112Y-66200771D01*
X150350112Y-66200771D02*
X150445350Y-66248390D01*
X150445350Y-66248390D02*
X150492969Y-66296009D01*
X150492969Y-66296009D02*
X150540588Y-66391247D01*
X150540588Y-66391247D02*
X150540588Y-66629342D01*
X150540588Y-66629342D02*
X150492969Y-66724580D01*
X150492969Y-66724580D02*
X150445350Y-66772200D01*
X150445350Y-66772200D02*
X150350112Y-66819819D01*
X150350112Y-66819819D02*
X150064398Y-66819819D01*
X150064398Y-66819819D02*
X149969160Y-66772200D01*
X149969160Y-66772200D02*
X149921541Y-66724580D01*
X151397731Y-66153152D02*
X151397731Y-66819819D01*
X151159636Y-65772200D02*
X150921541Y-66486485D01*
X150921541Y-66486485D02*
X151540588Y-66486485D01*
D12*
X182865600Y-76022707D02*
X182865600Y-75108422D01*
X183322742Y-75565564D02*
X182408457Y-75565564D01*
X148715600Y-66652707D02*
X148715600Y-65738422D01*
X149172742Y-66195564D02*
X148258457Y-66195564D01*
D10*
X162710000Y-110434875D02*
X162710000Y-109434875D01*
X162710000Y-109434875D02*
X163090952Y-109434875D01*
X163090952Y-109434875D02*
X163186190Y-109482494D01*
X163186190Y-109482494D02*
X163233809Y-109530113D01*
X163233809Y-109530113D02*
X163281428Y-109625351D01*
X163281428Y-109625351D02*
X163281428Y-109768208D01*
X163281428Y-109768208D02*
X163233809Y-109863446D01*
X163233809Y-109863446D02*
X163186190Y-109911065D01*
X163186190Y-109911065D02*
X163090952Y-109958684D01*
X163090952Y-109958684D02*
X162710000Y-109958684D01*
X164281428Y-110434875D02*
X163948095Y-109958684D01*
X163710000Y-110434875D02*
X163710000Y-109434875D01*
X163710000Y-109434875D02*
X164090952Y-109434875D01*
X164090952Y-109434875D02*
X164186190Y-109482494D01*
X164186190Y-109482494D02*
X164233809Y-109530113D01*
X164233809Y-109530113D02*
X164281428Y-109625351D01*
X164281428Y-109625351D02*
X164281428Y-109768208D01*
X164281428Y-109768208D02*
X164233809Y-109863446D01*
X164233809Y-109863446D02*
X164186190Y-109911065D01*
X164186190Y-109911065D02*
X164090952Y-109958684D01*
X164090952Y-109958684D02*
X163710000Y-109958684D01*
X164900476Y-109434875D02*
X165090952Y-109434875D01*
X165090952Y-109434875D02*
X165186190Y-109482494D01*
X165186190Y-109482494D02*
X165281428Y-109577732D01*
X165281428Y-109577732D02*
X165329047Y-109768208D01*
X165329047Y-109768208D02*
X165329047Y-110101541D01*
X165329047Y-110101541D02*
X165281428Y-110292017D01*
X165281428Y-110292017D02*
X165186190Y-110387256D01*
X165186190Y-110387256D02*
X165090952Y-110434875D01*
X165090952Y-110434875D02*
X164900476Y-110434875D01*
X164900476Y-110434875D02*
X164805238Y-110387256D01*
X164805238Y-110387256D02*
X164710000Y-110292017D01*
X164710000Y-110292017D02*
X164662381Y-110101541D01*
X164662381Y-110101541D02*
X164662381Y-109768208D01*
X164662381Y-109768208D02*
X164710000Y-109577732D01*
X164710000Y-109577732D02*
X164805238Y-109482494D01*
X164805238Y-109482494D02*
X164900476Y-109434875D01*
X166043333Y-109434875D02*
X166043333Y-110149160D01*
X166043333Y-110149160D02*
X165995714Y-110292017D01*
X165995714Y-110292017D02*
X165900476Y-110387256D01*
X165900476Y-110387256D02*
X165757619Y-110434875D01*
X165757619Y-110434875D02*
X165662381Y-110434875D01*
X166519524Y-109911065D02*
X166852857Y-109911065D01*
X166995714Y-110434875D02*
X166519524Y-110434875D01*
X166519524Y-110434875D02*
X166519524Y-109434875D01*
X166519524Y-109434875D02*
X166995714Y-109434875D01*
X167995714Y-110339636D02*
X167948095Y-110387256D01*
X167948095Y-110387256D02*
X167805238Y-110434875D01*
X167805238Y-110434875D02*
X167710000Y-110434875D01*
X167710000Y-110434875D02*
X167567143Y-110387256D01*
X167567143Y-110387256D02*
X167471905Y-110292017D01*
X167471905Y-110292017D02*
X167424286Y-110196779D01*
X167424286Y-110196779D02*
X167376667Y-110006303D01*
X167376667Y-110006303D02*
X167376667Y-109863446D01*
X167376667Y-109863446D02*
X167424286Y-109672970D01*
X167424286Y-109672970D02*
X167471905Y-109577732D01*
X167471905Y-109577732D02*
X167567143Y-109482494D01*
X167567143Y-109482494D02*
X167710000Y-109434875D01*
X167710000Y-109434875D02*
X167805238Y-109434875D01*
X167805238Y-109434875D02*
X167948095Y-109482494D01*
X167948095Y-109482494D02*
X167995714Y-109530113D01*
X168281429Y-109434875D02*
X168852857Y-109434875D01*
X168567143Y-110434875D02*
X168567143Y-109434875D01*
X163924286Y-112044819D02*
X163924286Y-111044819D01*
X163924286Y-111044819D02*
X164495714Y-112044819D01*
X164495714Y-112044819D02*
X164495714Y-111044819D01*
X164971905Y-111521009D02*
X165305238Y-111521009D01*
X165448095Y-112044819D02*
X164971905Y-112044819D01*
X164971905Y-112044819D02*
X164971905Y-111044819D01*
X164971905Y-111044819D02*
X165448095Y-111044819D01*
X166067143Y-111044819D02*
X166257619Y-111044819D01*
X166257619Y-111044819D02*
X166352857Y-111092438D01*
X166352857Y-111092438D02*
X166448095Y-111187676D01*
X166448095Y-111187676D02*
X166495714Y-111378152D01*
X166495714Y-111378152D02*
X166495714Y-111711485D01*
X166495714Y-111711485D02*
X166448095Y-111901961D01*
X166448095Y-111901961D02*
X166352857Y-111997200D01*
X166352857Y-111997200D02*
X166257619Y-112044819D01*
X166257619Y-112044819D02*
X166067143Y-112044819D01*
X166067143Y-112044819D02*
X165971905Y-111997200D01*
X165971905Y-111997200D02*
X165876667Y-111901961D01*
X165876667Y-111901961D02*
X165829048Y-111711485D01*
X165829048Y-111711485D02*
X165829048Y-111378152D01*
X165829048Y-111378152D02*
X165876667Y-111187676D01*
X165876667Y-111187676D02*
X165971905Y-111092438D01*
X165971905Y-111092438D02*
X166067143Y-111044819D01*
X166924286Y-112044819D02*
X166924286Y-111044819D01*
X166924286Y-111044819D02*
X167495714Y-112044819D01*
X167495714Y-112044819D02*
X167495714Y-111044819D01*
X163090952Y-113654763D02*
X162519524Y-113654763D01*
X162805238Y-113654763D02*
X162805238Y-112654763D01*
X162805238Y-112654763D02*
X162710000Y-112797620D01*
X162710000Y-112797620D02*
X162614762Y-112892858D01*
X162614762Y-112892858D02*
X162519524Y-112940477D01*
X164043333Y-113654763D02*
X163471905Y-113654763D01*
X163757619Y-113654763D02*
X163757619Y-112654763D01*
X163757619Y-112654763D02*
X163662381Y-112797620D01*
X163662381Y-112797620D02*
X163567143Y-112892858D01*
X163567143Y-112892858D02*
X163471905Y-112940477D01*
X165186190Y-112607144D02*
X164329048Y-113892858D01*
X165471905Y-112750001D02*
X165519524Y-112702382D01*
X165519524Y-112702382D02*
X165614762Y-112654763D01*
X165614762Y-112654763D02*
X165852857Y-112654763D01*
X165852857Y-112654763D02*
X165948095Y-112702382D01*
X165948095Y-112702382D02*
X165995714Y-112750001D01*
X165995714Y-112750001D02*
X166043333Y-112845239D01*
X166043333Y-112845239D02*
X166043333Y-112940477D01*
X166043333Y-112940477D02*
X165995714Y-113083334D01*
X165995714Y-113083334D02*
X165424286Y-113654763D01*
X165424286Y-113654763D02*
X166043333Y-113654763D01*
X166662381Y-112654763D02*
X166757619Y-112654763D01*
X166757619Y-112654763D02*
X166852857Y-112702382D01*
X166852857Y-112702382D02*
X166900476Y-112750001D01*
X166900476Y-112750001D02*
X166948095Y-112845239D01*
X166948095Y-112845239D02*
X166995714Y-113035715D01*
X166995714Y-113035715D02*
X166995714Y-113273810D01*
X166995714Y-113273810D02*
X166948095Y-113464286D01*
X166948095Y-113464286D02*
X166900476Y-113559524D01*
X166900476Y-113559524D02*
X166852857Y-113607144D01*
X166852857Y-113607144D02*
X166757619Y-113654763D01*
X166757619Y-113654763D02*
X166662381Y-113654763D01*
X166662381Y-113654763D02*
X166567143Y-113607144D01*
X166567143Y-113607144D02*
X166519524Y-113559524D01*
X166519524Y-113559524D02*
X166471905Y-113464286D01*
X166471905Y-113464286D02*
X166424286Y-113273810D01*
X166424286Y-113273810D02*
X166424286Y-113035715D01*
X166424286Y-113035715D02*
X166471905Y-112845239D01*
X166471905Y-112845239D02*
X166519524Y-112750001D01*
X166519524Y-112750001D02*
X166567143Y-112702382D01*
X166567143Y-112702382D02*
X166662381Y-112654763D01*
X167376667Y-112750001D02*
X167424286Y-112702382D01*
X167424286Y-112702382D02*
X167519524Y-112654763D01*
X167519524Y-112654763D02*
X167757619Y-112654763D01*
X167757619Y-112654763D02*
X167852857Y-112702382D01*
X167852857Y-112702382D02*
X167900476Y-112750001D01*
X167900476Y-112750001D02*
X167948095Y-112845239D01*
X167948095Y-112845239D02*
X167948095Y-112940477D01*
X167948095Y-112940477D02*
X167900476Y-113083334D01*
X167900476Y-113083334D02*
X167329048Y-113654763D01*
X167329048Y-113654763D02*
X167948095Y-113654763D01*
X168805238Y-112988096D02*
X168805238Y-113654763D01*
X168567143Y-112607144D02*
X168329048Y-113321429D01*
X168329048Y-113321429D02*
X168948095Y-113321429D01*
D12*
X148735600Y-62332707D02*
X148735600Y-61418422D01*
X149192742Y-61875564D02*
X148278457Y-61875564D01*
D10*
X165642390Y-99691792D02*
X165604295Y-99767982D01*
X165604295Y-99767982D02*
X165604295Y-99882268D01*
X165604295Y-99882268D02*
X165642390Y-99996554D01*
X165642390Y-99996554D02*
X165718580Y-100072744D01*
X165718580Y-100072744D02*
X165794771Y-100110839D01*
X165794771Y-100110839D02*
X165947152Y-100148935D01*
X165947152Y-100148935D02*
X166061438Y-100148935D01*
X166061438Y-100148935D02*
X166213819Y-100110839D01*
X166213819Y-100110839D02*
X166290009Y-100072744D01*
X166290009Y-100072744D02*
X166366200Y-99996554D01*
X166366200Y-99996554D02*
X166404295Y-99882268D01*
X166404295Y-99882268D02*
X166404295Y-99806077D01*
X166404295Y-99806077D02*
X166366200Y-99691792D01*
X166366200Y-99691792D02*
X166328104Y-99653696D01*
X166328104Y-99653696D02*
X166061438Y-99653696D01*
X166061438Y-99653696D02*
X166061438Y-99806077D01*
X166404295Y-99310839D02*
X165604295Y-99310839D01*
X165604295Y-99310839D02*
X166404295Y-98853696D01*
X166404295Y-98853696D02*
X165604295Y-98853696D01*
X166404295Y-98472744D02*
X165604295Y-98472744D01*
X165604295Y-98472744D02*
X165604295Y-98282268D01*
X165604295Y-98282268D02*
X165642390Y-98167982D01*
X165642390Y-98167982D02*
X165718580Y-98091792D01*
X165718580Y-98091792D02*
X165794771Y-98053697D01*
X165794771Y-98053697D02*
X165947152Y-98015601D01*
X165947152Y-98015601D02*
X166061438Y-98015601D01*
X166061438Y-98015601D02*
X166213819Y-98053697D01*
X166213819Y-98053697D02*
X166290009Y-98091792D01*
X166290009Y-98091792D02*
X166366200Y-98167982D01*
X166366200Y-98167982D02*
X166404295Y-98282268D01*
X166404295Y-98282268D02*
X166404295Y-98472744D01*
X166366200Y-93939412D02*
X166404295Y-93825126D01*
X166404295Y-93825126D02*
X166404295Y-93634650D01*
X166404295Y-93634650D02*
X166366200Y-93558459D01*
X166366200Y-93558459D02*
X166328104Y-93520364D01*
X166328104Y-93520364D02*
X166251914Y-93482269D01*
X166251914Y-93482269D02*
X166175723Y-93482269D01*
X166175723Y-93482269D02*
X166099533Y-93520364D01*
X166099533Y-93520364D02*
X166061438Y-93558459D01*
X166061438Y-93558459D02*
X166023342Y-93634650D01*
X166023342Y-93634650D02*
X165985247Y-93787031D01*
X165985247Y-93787031D02*
X165947152Y-93863221D01*
X165947152Y-93863221D02*
X165909057Y-93901316D01*
X165909057Y-93901316D02*
X165832866Y-93939412D01*
X165832866Y-93939412D02*
X165756676Y-93939412D01*
X165756676Y-93939412D02*
X165680485Y-93901316D01*
X165680485Y-93901316D02*
X165642390Y-93863221D01*
X165642390Y-93863221D02*
X165604295Y-93787031D01*
X165604295Y-93787031D02*
X165604295Y-93596554D01*
X165604295Y-93596554D02*
X165642390Y-93482269D01*
D12*
X153242707Y-66334400D02*
X152328422Y-66334400D01*
D11*
X176153408Y-101266895D02*
X175886741Y-100885942D01*
X175696265Y-101266895D02*
X175696265Y-100466895D01*
X175696265Y-100466895D02*
X176001027Y-100466895D01*
X176001027Y-100466895D02*
X176077217Y-100504990D01*
X176077217Y-100504990D02*
X176115312Y-100543085D01*
X176115312Y-100543085D02*
X176153408Y-100619276D01*
X176153408Y-100619276D02*
X176153408Y-100733561D01*
X176153408Y-100733561D02*
X176115312Y-100809752D01*
X176115312Y-100809752D02*
X176077217Y-100847847D01*
X176077217Y-100847847D02*
X176001027Y-100885942D01*
X176001027Y-100885942D02*
X175696265Y-100885942D01*
X176496265Y-100847847D02*
X176762931Y-100847847D01*
X176877217Y-101266895D02*
X176496265Y-101266895D01*
X176496265Y-101266895D02*
X176496265Y-100466895D01*
X176496265Y-100466895D02*
X176877217Y-100466895D01*
X177181979Y-101228800D02*
X177296265Y-101266895D01*
X177296265Y-101266895D02*
X177486741Y-101266895D01*
X177486741Y-101266895D02*
X177562932Y-101228800D01*
X177562932Y-101228800D02*
X177601027Y-101190704D01*
X177601027Y-101190704D02*
X177639122Y-101114514D01*
X177639122Y-101114514D02*
X177639122Y-101038323D01*
X177639122Y-101038323D02*
X177601027Y-100962133D01*
X177601027Y-100962133D02*
X177562932Y-100924038D01*
X177562932Y-100924038D02*
X177486741Y-100885942D01*
X177486741Y-100885942D02*
X177334360Y-100847847D01*
X177334360Y-100847847D02*
X177258170Y-100809752D01*
X177258170Y-100809752D02*
X177220075Y-100771657D01*
X177220075Y-100771657D02*
X177181979Y-100695466D01*
X177181979Y-100695466D02*
X177181979Y-100619276D01*
X177181979Y-100619276D02*
X177220075Y-100543085D01*
X177220075Y-100543085D02*
X177258170Y-100504990D01*
X177258170Y-100504990D02*
X177334360Y-100466895D01*
X177334360Y-100466895D02*
X177524837Y-100466895D01*
X177524837Y-100466895D02*
X177639122Y-100504990D01*
X177981980Y-100847847D02*
X178248646Y-100847847D01*
X178362932Y-101266895D02*
X177981980Y-101266895D01*
X177981980Y-101266895D02*
X177981980Y-100466895D01*
X177981980Y-100466895D02*
X178362932Y-100466895D01*
X178591504Y-100466895D02*
X179048647Y-100466895D01*
X178820075Y-101266895D02*
X178820075Y-100466895D01*
D10*
X165622390Y-88781792D02*
X165584295Y-88857982D01*
X165584295Y-88857982D02*
X165584295Y-88972268D01*
X165584295Y-88972268D02*
X165622390Y-89086554D01*
X165622390Y-89086554D02*
X165698580Y-89162744D01*
X165698580Y-89162744D02*
X165774771Y-89200839D01*
X165774771Y-89200839D02*
X165927152Y-89238935D01*
X165927152Y-89238935D02*
X166041438Y-89238935D01*
X166041438Y-89238935D02*
X166193819Y-89200839D01*
X166193819Y-89200839D02*
X166270009Y-89162744D01*
X166270009Y-89162744D02*
X166346200Y-89086554D01*
X166346200Y-89086554D02*
X166384295Y-88972268D01*
X166384295Y-88972268D02*
X166384295Y-88896077D01*
X166384295Y-88896077D02*
X166346200Y-88781792D01*
X166346200Y-88781792D02*
X166308104Y-88743696D01*
X166308104Y-88743696D02*
X166041438Y-88743696D01*
X166041438Y-88743696D02*
X166041438Y-88896077D01*
X166384295Y-88400839D02*
X165584295Y-88400839D01*
X165584295Y-88400839D02*
X166384295Y-87943696D01*
X166384295Y-87943696D02*
X165584295Y-87943696D01*
X166384295Y-87562744D02*
X165584295Y-87562744D01*
X165584295Y-87562744D02*
X165584295Y-87372268D01*
X165584295Y-87372268D02*
X165622390Y-87257982D01*
X165622390Y-87257982D02*
X165698580Y-87181792D01*
X165698580Y-87181792D02*
X165774771Y-87143697D01*
X165774771Y-87143697D02*
X165927152Y-87105601D01*
X165927152Y-87105601D02*
X166041438Y-87105601D01*
X166041438Y-87105601D02*
X166193819Y-87143697D01*
X166193819Y-87143697D02*
X166270009Y-87181792D01*
X166270009Y-87181792D02*
X166346200Y-87257982D01*
X166346200Y-87257982D02*
X166384295Y-87372268D01*
X166384295Y-87372268D02*
X166384295Y-87562744D01*
X166346200Y-83029412D02*
X166384295Y-82915126D01*
X166384295Y-82915126D02*
X166384295Y-82724650D01*
X166384295Y-82724650D02*
X166346200Y-82648459D01*
X166346200Y-82648459D02*
X166308104Y-82610364D01*
X166308104Y-82610364D02*
X166231914Y-82572269D01*
X166231914Y-82572269D02*
X166155723Y-82572269D01*
X166155723Y-82572269D02*
X166079533Y-82610364D01*
X166079533Y-82610364D02*
X166041438Y-82648459D01*
X166041438Y-82648459D02*
X166003342Y-82724650D01*
X166003342Y-82724650D02*
X165965247Y-82877031D01*
X165965247Y-82877031D02*
X165927152Y-82953221D01*
X165927152Y-82953221D02*
X165889057Y-82991316D01*
X165889057Y-82991316D02*
X165812866Y-83029412D01*
X165812866Y-83029412D02*
X165736676Y-83029412D01*
X165736676Y-83029412D02*
X165660485Y-82991316D01*
X165660485Y-82991316D02*
X165622390Y-82953221D01*
X165622390Y-82953221D02*
X165584295Y-82877031D01*
X165584295Y-82877031D02*
X165584295Y-82686554D01*
X165584295Y-82686554D02*
X165622390Y-82572269D01*
X167355247Y-86920839D02*
X167355247Y-86654173D01*
X167774295Y-86539887D02*
X167774295Y-86920839D01*
X167774295Y-86920839D02*
X166974295Y-86920839D01*
X166974295Y-86920839D02*
X166974295Y-86539887D01*
X167736200Y-86235125D02*
X167774295Y-86120839D01*
X167774295Y-86120839D02*
X167774295Y-85930363D01*
X167774295Y-85930363D02*
X167736200Y-85854172D01*
X167736200Y-85854172D02*
X167698104Y-85816077D01*
X167698104Y-85816077D02*
X167621914Y-85777982D01*
X167621914Y-85777982D02*
X167545723Y-85777982D01*
X167545723Y-85777982D02*
X167469533Y-85816077D01*
X167469533Y-85816077D02*
X167431438Y-85854172D01*
X167431438Y-85854172D02*
X167393342Y-85930363D01*
X167393342Y-85930363D02*
X167355247Y-86082744D01*
X167355247Y-86082744D02*
X167317152Y-86158934D01*
X167317152Y-86158934D02*
X167279057Y-86197029D01*
X167279057Y-86197029D02*
X167202866Y-86235125D01*
X167202866Y-86235125D02*
X167126676Y-86235125D01*
X167126676Y-86235125D02*
X167050485Y-86197029D01*
X167050485Y-86197029D02*
X167012390Y-86158934D01*
X167012390Y-86158934D02*
X166974295Y-86082744D01*
X166974295Y-86082744D02*
X166974295Y-85892267D01*
X166974295Y-85892267D02*
X167012390Y-85777982D01*
X167698104Y-84977981D02*
X167736200Y-85016077D01*
X167736200Y-85016077D02*
X167774295Y-85130362D01*
X167774295Y-85130362D02*
X167774295Y-85206553D01*
X167774295Y-85206553D02*
X167736200Y-85320839D01*
X167736200Y-85320839D02*
X167660009Y-85397029D01*
X167660009Y-85397029D02*
X167583819Y-85435124D01*
X167583819Y-85435124D02*
X167431438Y-85473220D01*
X167431438Y-85473220D02*
X167317152Y-85473220D01*
X167317152Y-85473220D02*
X167164771Y-85435124D01*
X167164771Y-85435124D02*
X167088580Y-85397029D01*
X167088580Y-85397029D02*
X167012390Y-85320839D01*
X167012390Y-85320839D02*
X166974295Y-85206553D01*
X166974295Y-85206553D02*
X166974295Y-85130362D01*
X166974295Y-85130362D02*
X167012390Y-85016077D01*
X167012390Y-85016077D02*
X167050485Y-84977981D01*
X167469533Y-84635124D02*
X167469533Y-84025601D01*
X167774295Y-83225601D02*
X167774295Y-83682744D01*
X167774295Y-83454172D02*
X166974295Y-83454172D01*
X166974295Y-83454172D02*
X167088580Y-83530363D01*
X167088580Y-83530363D02*
X167164771Y-83606553D01*
X167164771Y-83606553D02*
X167202866Y-83682744D01*
X172903445Y-110064295D02*
X172903445Y-110254771D01*
X172712969Y-110178580D02*
X172903445Y-110254771D01*
X172903445Y-110254771D02*
X173093922Y-110178580D01*
X172789160Y-110407152D02*
X172903445Y-110254771D01*
X172903445Y-110254771D02*
X173017731Y-110407152D01*
X187443333Y-62054819D02*
X187110000Y-61578628D01*
X186871905Y-62054819D02*
X186871905Y-61054819D01*
X186871905Y-61054819D02*
X187252857Y-61054819D01*
X187252857Y-61054819D02*
X187348095Y-61102438D01*
X187348095Y-61102438D02*
X187395714Y-61150057D01*
X187395714Y-61150057D02*
X187443333Y-61245295D01*
X187443333Y-61245295D02*
X187443333Y-61388152D01*
X187443333Y-61388152D02*
X187395714Y-61483390D01*
X187395714Y-61483390D02*
X187348095Y-61531009D01*
X187348095Y-61531009D02*
X187252857Y-61578628D01*
X187252857Y-61578628D02*
X186871905Y-61578628D01*
X187824286Y-61150057D02*
X187871905Y-61102438D01*
X187871905Y-61102438D02*
X187967143Y-61054819D01*
X187967143Y-61054819D02*
X188205238Y-61054819D01*
X188205238Y-61054819D02*
X188300476Y-61102438D01*
X188300476Y-61102438D02*
X188348095Y-61150057D01*
X188348095Y-61150057D02*
X188395714Y-61245295D01*
X188395714Y-61245295D02*
X188395714Y-61340533D01*
X188395714Y-61340533D02*
X188348095Y-61483390D01*
X188348095Y-61483390D02*
X187776667Y-62054819D01*
X187776667Y-62054819D02*
X188395714Y-62054819D01*
X160619580Y-66356666D02*
X160667200Y-66404285D01*
X160667200Y-66404285D02*
X160714819Y-66547142D01*
X160714819Y-66547142D02*
X160714819Y-66642380D01*
X160714819Y-66642380D02*
X160667200Y-66785237D01*
X160667200Y-66785237D02*
X160571961Y-66880475D01*
X160571961Y-66880475D02*
X160476723Y-66928094D01*
X160476723Y-66928094D02*
X160286247Y-66975713D01*
X160286247Y-66975713D02*
X160143390Y-66975713D01*
X160143390Y-66975713D02*
X159952914Y-66928094D01*
X159952914Y-66928094D02*
X159857676Y-66880475D01*
X159857676Y-66880475D02*
X159762438Y-66785237D01*
X159762438Y-66785237D02*
X159714819Y-66642380D01*
X159714819Y-66642380D02*
X159714819Y-66547142D01*
X159714819Y-66547142D02*
X159762438Y-66404285D01*
X159762438Y-66404285D02*
X159810057Y-66356666D01*
X160143390Y-65785237D02*
X160095771Y-65880475D01*
X160095771Y-65880475D02*
X160048152Y-65928094D01*
X160048152Y-65928094D02*
X159952914Y-65975713D01*
X159952914Y-65975713D02*
X159905295Y-65975713D01*
X159905295Y-65975713D02*
X159810057Y-65928094D01*
X159810057Y-65928094D02*
X159762438Y-65880475D01*
X159762438Y-65880475D02*
X159714819Y-65785237D01*
X159714819Y-65785237D02*
X159714819Y-65594761D01*
X159714819Y-65594761D02*
X159762438Y-65499523D01*
X159762438Y-65499523D02*
X159810057Y-65451904D01*
X159810057Y-65451904D02*
X159905295Y-65404285D01*
X159905295Y-65404285D02*
X159952914Y-65404285D01*
X159952914Y-65404285D02*
X160048152Y-65451904D01*
X160048152Y-65451904D02*
X160095771Y-65499523D01*
X160095771Y-65499523D02*
X160143390Y-65594761D01*
X160143390Y-65594761D02*
X160143390Y-65785237D01*
X160143390Y-65785237D02*
X160191009Y-65880475D01*
X160191009Y-65880475D02*
X160238628Y-65928094D01*
X160238628Y-65928094D02*
X160333866Y-65975713D01*
X160333866Y-65975713D02*
X160524342Y-65975713D01*
X160524342Y-65975713D02*
X160619580Y-65928094D01*
X160619580Y-65928094D02*
X160667200Y-65880475D01*
X160667200Y-65880475D02*
X160714819Y-65785237D01*
X160714819Y-65785237D02*
X160714819Y-65594761D01*
X160714819Y-65594761D02*
X160667200Y-65499523D01*
X160667200Y-65499523D02*
X160619580Y-65451904D01*
X160619580Y-65451904D02*
X160524342Y-65404285D01*
X160524342Y-65404285D02*
X160333866Y-65404285D01*
X160333866Y-65404285D02*
X160238628Y-65451904D01*
X160238628Y-65451904D02*
X160191009Y-65499523D01*
X160191009Y-65499523D02*
X160143390Y-65594761D01*
X181263333Y-95114819D02*
X180930000Y-94638628D01*
X180691905Y-95114819D02*
X180691905Y-94114819D01*
X180691905Y-94114819D02*
X181072857Y-94114819D01*
X181072857Y-94114819D02*
X181168095Y-94162438D01*
X181168095Y-94162438D02*
X181215714Y-94210057D01*
X181215714Y-94210057D02*
X181263333Y-94305295D01*
X181263333Y-94305295D02*
X181263333Y-94448152D01*
X181263333Y-94448152D02*
X181215714Y-94543390D01*
X181215714Y-94543390D02*
X181168095Y-94591009D01*
X181168095Y-94591009D02*
X181072857Y-94638628D01*
X181072857Y-94638628D02*
X180691905Y-94638628D01*
X181739524Y-95114819D02*
X181930000Y-95114819D01*
X181930000Y-95114819D02*
X182025238Y-95067200D01*
X182025238Y-95067200D02*
X182072857Y-95019580D01*
X182072857Y-95019580D02*
X182168095Y-94876723D01*
X182168095Y-94876723D02*
X182215714Y-94686247D01*
X182215714Y-94686247D02*
X182215714Y-94305295D01*
X182215714Y-94305295D02*
X182168095Y-94210057D01*
X182168095Y-94210057D02*
X182120476Y-94162438D01*
X182120476Y-94162438D02*
X182025238Y-94114819D01*
X182025238Y-94114819D02*
X181834762Y-94114819D01*
X181834762Y-94114819D02*
X181739524Y-94162438D01*
X181739524Y-94162438D02*
X181691905Y-94210057D01*
X181691905Y-94210057D02*
X181644286Y-94305295D01*
X181644286Y-94305295D02*
X181644286Y-94543390D01*
X181644286Y-94543390D02*
X181691905Y-94638628D01*
X181691905Y-94638628D02*
X181739524Y-94686247D01*
X181739524Y-94686247D02*
X181834762Y-94733866D01*
X181834762Y-94733866D02*
X182025238Y-94733866D01*
X182025238Y-94733866D02*
X182120476Y-94686247D01*
X182120476Y-94686247D02*
X182168095Y-94638628D01*
X182168095Y-94638628D02*
X182215714Y-94543390D01*
X158962295Y-75474285D02*
X158581342Y-75740952D01*
X158962295Y-75931428D02*
X158162295Y-75931428D01*
X158162295Y-75931428D02*
X158162295Y-75626666D01*
X158162295Y-75626666D02*
X158200390Y-75550476D01*
X158200390Y-75550476D02*
X158238485Y-75512381D01*
X158238485Y-75512381D02*
X158314676Y-75474285D01*
X158314676Y-75474285D02*
X158428961Y-75474285D01*
X158428961Y-75474285D02*
X158505152Y-75512381D01*
X158505152Y-75512381D02*
X158543247Y-75550476D01*
X158543247Y-75550476D02*
X158581342Y-75626666D01*
X158581342Y-75626666D02*
X158581342Y-75931428D01*
X158962295Y-74712381D02*
X158962295Y-75169524D01*
X158962295Y-74940952D02*
X158162295Y-74940952D01*
X158162295Y-74940952D02*
X158276580Y-75017143D01*
X158276580Y-75017143D02*
X158352771Y-75093333D01*
X158352771Y-75093333D02*
X158390866Y-75169524D01*
X158238485Y-74407619D02*
X158200390Y-74369523D01*
X158200390Y-74369523D02*
X158162295Y-74293333D01*
X158162295Y-74293333D02*
X158162295Y-74102857D01*
X158162295Y-74102857D02*
X158200390Y-74026666D01*
X158200390Y-74026666D02*
X158238485Y-73988571D01*
X158238485Y-73988571D02*
X158314676Y-73950476D01*
X158314676Y-73950476D02*
X158390866Y-73950476D01*
X158390866Y-73950476D02*
X158505152Y-73988571D01*
X158505152Y-73988571D02*
X158962295Y-74445714D01*
X158962295Y-74445714D02*
X158962295Y-73950476D01*
X160552295Y-75399285D02*
X160171342Y-75665952D01*
X160552295Y-75856428D02*
X159752295Y-75856428D01*
X159752295Y-75856428D02*
X159752295Y-75551666D01*
X159752295Y-75551666D02*
X159790390Y-75475476D01*
X159790390Y-75475476D02*
X159828485Y-75437381D01*
X159828485Y-75437381D02*
X159904676Y-75399285D01*
X159904676Y-75399285D02*
X160018961Y-75399285D01*
X160018961Y-75399285D02*
X160095152Y-75437381D01*
X160095152Y-75437381D02*
X160133247Y-75475476D01*
X160133247Y-75475476D02*
X160171342Y-75551666D01*
X160171342Y-75551666D02*
X160171342Y-75856428D01*
X160552295Y-74637381D02*
X160552295Y-75094524D01*
X160552295Y-74865952D02*
X159752295Y-74865952D01*
X159752295Y-74865952D02*
X159866580Y-74942143D01*
X159866580Y-74942143D02*
X159942771Y-75018333D01*
X159942771Y-75018333D02*
X159980866Y-75094524D01*
X160552295Y-73875476D02*
X160552295Y-74332619D01*
X160552295Y-74104047D02*
X159752295Y-74104047D01*
X159752295Y-74104047D02*
X159866580Y-74180238D01*
X159866580Y-74180238D02*
X159942771Y-74256428D01*
X159942771Y-74256428D02*
X159980866Y-74332619D01*
X180043333Y-79964819D02*
X179710000Y-79488628D01*
X179471905Y-79964819D02*
X179471905Y-78964819D01*
X179471905Y-78964819D02*
X179852857Y-78964819D01*
X179852857Y-78964819D02*
X179948095Y-79012438D01*
X179948095Y-79012438D02*
X179995714Y-79060057D01*
X179995714Y-79060057D02*
X180043333Y-79155295D01*
X180043333Y-79155295D02*
X180043333Y-79298152D01*
X180043333Y-79298152D02*
X179995714Y-79393390D01*
X179995714Y-79393390D02*
X179948095Y-79441009D01*
X179948095Y-79441009D02*
X179852857Y-79488628D01*
X179852857Y-79488628D02*
X179471905Y-79488628D01*
X180614762Y-79393390D02*
X180519524Y-79345771D01*
X180519524Y-79345771D02*
X180471905Y-79298152D01*
X180471905Y-79298152D02*
X180424286Y-79202914D01*
X180424286Y-79202914D02*
X180424286Y-79155295D01*
X180424286Y-79155295D02*
X180471905Y-79060057D01*
X180471905Y-79060057D02*
X180519524Y-79012438D01*
X180519524Y-79012438D02*
X180614762Y-78964819D01*
X180614762Y-78964819D02*
X180805238Y-78964819D01*
X180805238Y-78964819D02*
X180900476Y-79012438D01*
X180900476Y-79012438D02*
X180948095Y-79060057D01*
X180948095Y-79060057D02*
X180995714Y-79155295D01*
X180995714Y-79155295D02*
X180995714Y-79202914D01*
X180995714Y-79202914D02*
X180948095Y-79298152D01*
X180948095Y-79298152D02*
X180900476Y-79345771D01*
X180900476Y-79345771D02*
X180805238Y-79393390D01*
X180805238Y-79393390D02*
X180614762Y-79393390D01*
X180614762Y-79393390D02*
X180519524Y-79441009D01*
X180519524Y-79441009D02*
X180471905Y-79488628D01*
X180471905Y-79488628D02*
X180424286Y-79583866D01*
X180424286Y-79583866D02*
X180424286Y-79774342D01*
X180424286Y-79774342D02*
X180471905Y-79869580D01*
X180471905Y-79869580D02*
X180519524Y-79917200D01*
X180519524Y-79917200D02*
X180614762Y-79964819D01*
X180614762Y-79964819D02*
X180805238Y-79964819D01*
X180805238Y-79964819D02*
X180900476Y-79917200D01*
X180900476Y-79917200D02*
X180948095Y-79869580D01*
X180948095Y-79869580D02*
X180995714Y-79774342D01*
X180995714Y-79774342D02*
X180995714Y-79583866D01*
X180995714Y-79583866D02*
X180948095Y-79488628D01*
X180948095Y-79488628D02*
X180900476Y-79441009D01*
X180900476Y-79441009D02*
X180805238Y-79393390D01*
X182284819Y-78483333D02*
X182999104Y-78483333D01*
X182999104Y-78483333D02*
X183141961Y-78530952D01*
X183141961Y-78530952D02*
X183237200Y-78626190D01*
X183237200Y-78626190D02*
X183284819Y-78769047D01*
X183284819Y-78769047D02*
X183284819Y-78864285D01*
X182618152Y-77578571D02*
X183284819Y-77578571D01*
X182237200Y-77816666D02*
X182951485Y-78054761D01*
X182951485Y-78054761D02*
X182951485Y-77435714D01*
X170973333Y-113924819D02*
X170640000Y-113448628D01*
X170401905Y-113924819D02*
X170401905Y-112924819D01*
X170401905Y-112924819D02*
X170782857Y-112924819D01*
X170782857Y-112924819D02*
X170878095Y-112972438D01*
X170878095Y-112972438D02*
X170925714Y-113020057D01*
X170925714Y-113020057D02*
X170973333Y-113115295D01*
X170973333Y-113115295D02*
X170973333Y-113258152D01*
X170973333Y-113258152D02*
X170925714Y-113353390D01*
X170925714Y-113353390D02*
X170878095Y-113401009D01*
X170878095Y-113401009D02*
X170782857Y-113448628D01*
X170782857Y-113448628D02*
X170401905Y-113448628D01*
X171306667Y-112924819D02*
X171925714Y-112924819D01*
X171925714Y-112924819D02*
X171592381Y-113305771D01*
X171592381Y-113305771D02*
X171735238Y-113305771D01*
X171735238Y-113305771D02*
X171830476Y-113353390D01*
X171830476Y-113353390D02*
X171878095Y-113401009D01*
X171878095Y-113401009D02*
X171925714Y-113496247D01*
X171925714Y-113496247D02*
X171925714Y-113734342D01*
X171925714Y-113734342D02*
X171878095Y-113829580D01*
X171878095Y-113829580D02*
X171830476Y-113877200D01*
X171830476Y-113877200D02*
X171735238Y-113924819D01*
X171735238Y-113924819D02*
X171449524Y-113924819D01*
X171449524Y-113924819D02*
X171354286Y-113877200D01*
X171354286Y-113877200D02*
X171306667Y-113829580D01*
X158787142Y-68834819D02*
X158453809Y-68358628D01*
X158215714Y-68834819D02*
X158215714Y-67834819D01*
X158215714Y-67834819D02*
X158596666Y-67834819D01*
X158596666Y-67834819D02*
X158691904Y-67882438D01*
X158691904Y-67882438D02*
X158739523Y-67930057D01*
X158739523Y-67930057D02*
X158787142Y-68025295D01*
X158787142Y-68025295D02*
X158787142Y-68168152D01*
X158787142Y-68168152D02*
X158739523Y-68263390D01*
X158739523Y-68263390D02*
X158691904Y-68311009D01*
X158691904Y-68311009D02*
X158596666Y-68358628D01*
X158596666Y-68358628D02*
X158215714Y-68358628D01*
X159739523Y-68834819D02*
X159168095Y-68834819D01*
X159453809Y-68834819D02*
X159453809Y-67834819D01*
X159453809Y-67834819D02*
X159358571Y-67977676D01*
X159358571Y-67977676D02*
X159263333Y-68072914D01*
X159263333Y-68072914D02*
X159168095Y-68120533D01*
X160358571Y-67834819D02*
X160453809Y-67834819D01*
X160453809Y-67834819D02*
X160549047Y-67882438D01*
X160549047Y-67882438D02*
X160596666Y-67930057D01*
X160596666Y-67930057D02*
X160644285Y-68025295D01*
X160644285Y-68025295D02*
X160691904Y-68215771D01*
X160691904Y-68215771D02*
X160691904Y-68453866D01*
X160691904Y-68453866D02*
X160644285Y-68644342D01*
X160644285Y-68644342D02*
X160596666Y-68739580D01*
X160596666Y-68739580D02*
X160549047Y-68787200D01*
X160549047Y-68787200D02*
X160453809Y-68834819D01*
X160453809Y-68834819D02*
X160358571Y-68834819D01*
X160358571Y-68834819D02*
X160263333Y-68787200D01*
X160263333Y-68787200D02*
X160215714Y-68739580D01*
X160215714Y-68739580D02*
X160168095Y-68644342D01*
X160168095Y-68644342D02*
X160120476Y-68453866D01*
X160120476Y-68453866D02*
X160120476Y-68215771D01*
X160120476Y-68215771D02*
X160168095Y-68025295D01*
X160168095Y-68025295D02*
X160215714Y-67930057D01*
X160215714Y-67930057D02*
X160263333Y-67882438D01*
X160263333Y-67882438D02*
X160358571Y-67834819D01*
X159012295Y-66934285D02*
X158631342Y-67200952D01*
X159012295Y-67391428D02*
X158212295Y-67391428D01*
X158212295Y-67391428D02*
X158212295Y-67086666D01*
X158212295Y-67086666D02*
X158250390Y-67010476D01*
X158250390Y-67010476D02*
X158288485Y-66972381D01*
X158288485Y-66972381D02*
X158364676Y-66934285D01*
X158364676Y-66934285D02*
X158478961Y-66934285D01*
X158478961Y-66934285D02*
X158555152Y-66972381D01*
X158555152Y-66972381D02*
X158593247Y-67010476D01*
X158593247Y-67010476D02*
X158631342Y-67086666D01*
X158631342Y-67086666D02*
X158631342Y-67391428D01*
X159012295Y-66172381D02*
X159012295Y-66629524D01*
X159012295Y-66400952D02*
X158212295Y-66400952D01*
X158212295Y-66400952D02*
X158326580Y-66477143D01*
X158326580Y-66477143D02*
X158402771Y-66553333D01*
X158402771Y-66553333D02*
X158440866Y-66629524D01*
X158478961Y-65486666D02*
X159012295Y-65486666D01*
X158174200Y-65677142D02*
X158745628Y-65867619D01*
X158745628Y-65867619D02*
X158745628Y-65372380D01*
X160671009Y-55926666D02*
X160671009Y-55593333D01*
X161194819Y-55450476D02*
X161194819Y-55926666D01*
X161194819Y-55926666D02*
X160194819Y-55926666D01*
X160194819Y-55926666D02*
X160194819Y-55450476D01*
X161147200Y-55069523D02*
X161194819Y-54926666D01*
X161194819Y-54926666D02*
X161194819Y-54688571D01*
X161194819Y-54688571D02*
X161147200Y-54593333D01*
X161147200Y-54593333D02*
X161099580Y-54545714D01*
X161099580Y-54545714D02*
X161004342Y-54498095D01*
X161004342Y-54498095D02*
X160909104Y-54498095D01*
X160909104Y-54498095D02*
X160813866Y-54545714D01*
X160813866Y-54545714D02*
X160766247Y-54593333D01*
X160766247Y-54593333D02*
X160718628Y-54688571D01*
X160718628Y-54688571D02*
X160671009Y-54879047D01*
X160671009Y-54879047D02*
X160623390Y-54974285D01*
X160623390Y-54974285D02*
X160575771Y-55021904D01*
X160575771Y-55021904D02*
X160480533Y-55069523D01*
X160480533Y-55069523D02*
X160385295Y-55069523D01*
X160385295Y-55069523D02*
X160290057Y-55021904D01*
X160290057Y-55021904D02*
X160242438Y-54974285D01*
X160242438Y-54974285D02*
X160194819Y-54879047D01*
X160194819Y-54879047D02*
X160194819Y-54640952D01*
X160194819Y-54640952D02*
X160242438Y-54498095D01*
X161194819Y-54069523D02*
X160194819Y-54069523D01*
X160194819Y-54069523D02*
X160194819Y-53688571D01*
X160194819Y-53688571D02*
X160242438Y-53593333D01*
X160242438Y-53593333D02*
X160290057Y-53545714D01*
X160290057Y-53545714D02*
X160385295Y-53498095D01*
X160385295Y-53498095D02*
X160528152Y-53498095D01*
X160528152Y-53498095D02*
X160623390Y-53545714D01*
X160623390Y-53545714D02*
X160671009Y-53593333D01*
X160671009Y-53593333D02*
X160718628Y-53688571D01*
X160718628Y-53688571D02*
X160718628Y-54069523D01*
X161194819Y-52545714D02*
X161194819Y-53117142D01*
X161194819Y-52831428D02*
X160194819Y-52831428D01*
X160194819Y-52831428D02*
X160337676Y-52926666D01*
X160337676Y-52926666D02*
X160432914Y-53021904D01*
X160432914Y-53021904D02*
X160480533Y-53117142D01*
X182604819Y-106533333D02*
X183319104Y-106533333D01*
X183319104Y-106533333D02*
X183461961Y-106580952D01*
X183461961Y-106580952D02*
X183557200Y-106676190D01*
X183557200Y-106676190D02*
X183604819Y-106819047D01*
X183604819Y-106819047D02*
X183604819Y-106914285D01*
X182700057Y-106104761D02*
X182652438Y-106057142D01*
X182652438Y-106057142D02*
X182604819Y-105961904D01*
X182604819Y-105961904D02*
X182604819Y-105723809D01*
X182604819Y-105723809D02*
X182652438Y-105628571D01*
X182652438Y-105628571D02*
X182700057Y-105580952D01*
X182700057Y-105580952D02*
X182795295Y-105533333D01*
X182795295Y-105533333D02*
X182890533Y-105533333D01*
X182890533Y-105533333D02*
X183033390Y-105580952D01*
X183033390Y-105580952D02*
X183604819Y-106152380D01*
X183604819Y-106152380D02*
X183604819Y-105533333D01*
X147576666Y-62314819D02*
X147576666Y-63029104D01*
X147576666Y-63029104D02*
X147529047Y-63171961D01*
X147529047Y-63171961D02*
X147433809Y-63267200D01*
X147433809Y-63267200D02*
X147290952Y-63314819D01*
X147290952Y-63314819D02*
X147195714Y-63314819D01*
X148481428Y-62314819D02*
X148290952Y-62314819D01*
X148290952Y-62314819D02*
X148195714Y-62362438D01*
X148195714Y-62362438D02*
X148148095Y-62410057D01*
X148148095Y-62410057D02*
X148052857Y-62552914D01*
X148052857Y-62552914D02*
X148005238Y-62743390D01*
X148005238Y-62743390D02*
X148005238Y-63124342D01*
X148005238Y-63124342D02*
X148052857Y-63219580D01*
X148052857Y-63219580D02*
X148100476Y-63267200D01*
X148100476Y-63267200D02*
X148195714Y-63314819D01*
X148195714Y-63314819D02*
X148386190Y-63314819D01*
X148386190Y-63314819D02*
X148481428Y-63267200D01*
X148481428Y-63267200D02*
X148529047Y-63219580D01*
X148529047Y-63219580D02*
X148576666Y-63124342D01*
X148576666Y-63124342D02*
X148576666Y-62886247D01*
X148576666Y-62886247D02*
X148529047Y-62791009D01*
X148529047Y-62791009D02*
X148481428Y-62743390D01*
X148481428Y-62743390D02*
X148386190Y-62695771D01*
X148386190Y-62695771D02*
X148195714Y-62695771D01*
X148195714Y-62695771D02*
X148100476Y-62743390D01*
X148100476Y-62743390D02*
X148052857Y-62791009D01*
X148052857Y-62791009D02*
X148005238Y-62886247D01*
X181218333Y-98219580D02*
X181170714Y-98267200D01*
X181170714Y-98267200D02*
X181027857Y-98314819D01*
X181027857Y-98314819D02*
X180932619Y-98314819D01*
X180932619Y-98314819D02*
X180789762Y-98267200D01*
X180789762Y-98267200D02*
X180694524Y-98171961D01*
X180694524Y-98171961D02*
X180646905Y-98076723D01*
X180646905Y-98076723D02*
X180599286Y-97886247D01*
X180599286Y-97886247D02*
X180599286Y-97743390D01*
X180599286Y-97743390D02*
X180646905Y-97552914D01*
X180646905Y-97552914D02*
X180694524Y-97457676D01*
X180694524Y-97457676D02*
X180789762Y-97362438D01*
X180789762Y-97362438D02*
X180932619Y-97314819D01*
X180932619Y-97314819D02*
X181027857Y-97314819D01*
X181027857Y-97314819D02*
X181170714Y-97362438D01*
X181170714Y-97362438D02*
X181218333Y-97410057D01*
X182123095Y-97314819D02*
X181646905Y-97314819D01*
X181646905Y-97314819D02*
X181599286Y-97791009D01*
X181599286Y-97791009D02*
X181646905Y-97743390D01*
X181646905Y-97743390D02*
X181742143Y-97695771D01*
X181742143Y-97695771D02*
X181980238Y-97695771D01*
X181980238Y-97695771D02*
X182075476Y-97743390D01*
X182075476Y-97743390D02*
X182123095Y-97791009D01*
X182123095Y-97791009D02*
X182170714Y-97886247D01*
X182170714Y-97886247D02*
X182170714Y-98124342D01*
X182170714Y-98124342D02*
X182123095Y-98219580D01*
X182123095Y-98219580D02*
X182075476Y-98267200D01*
X182075476Y-98267200D02*
X181980238Y-98314819D01*
X181980238Y-98314819D02*
X181742143Y-98314819D01*
X181742143Y-98314819D02*
X181646905Y-98267200D01*
X181646905Y-98267200D02*
X181599286Y-98219580D01*
X158989580Y-58292857D02*
X159037200Y-58340476D01*
X159037200Y-58340476D02*
X159084819Y-58483333D01*
X159084819Y-58483333D02*
X159084819Y-58578571D01*
X159084819Y-58578571D02*
X159037200Y-58721428D01*
X159037200Y-58721428D02*
X158941961Y-58816666D01*
X158941961Y-58816666D02*
X158846723Y-58864285D01*
X158846723Y-58864285D02*
X158656247Y-58911904D01*
X158656247Y-58911904D02*
X158513390Y-58911904D01*
X158513390Y-58911904D02*
X158322914Y-58864285D01*
X158322914Y-58864285D02*
X158227676Y-58816666D01*
X158227676Y-58816666D02*
X158132438Y-58721428D01*
X158132438Y-58721428D02*
X158084819Y-58578571D01*
X158084819Y-58578571D02*
X158084819Y-58483333D01*
X158084819Y-58483333D02*
X158132438Y-58340476D01*
X158132438Y-58340476D02*
X158180057Y-58292857D01*
X159084819Y-57340476D02*
X159084819Y-57911904D01*
X159084819Y-57626190D02*
X158084819Y-57626190D01*
X158084819Y-57626190D02*
X158227676Y-57721428D01*
X158227676Y-57721428D02*
X158322914Y-57816666D01*
X158322914Y-57816666D02*
X158370533Y-57911904D01*
X158084819Y-56721428D02*
X158084819Y-56626190D01*
X158084819Y-56626190D02*
X158132438Y-56530952D01*
X158132438Y-56530952D02*
X158180057Y-56483333D01*
X158180057Y-56483333D02*
X158275295Y-56435714D01*
X158275295Y-56435714D02*
X158465771Y-56388095D01*
X158465771Y-56388095D02*
X158703866Y-56388095D01*
X158703866Y-56388095D02*
X158894342Y-56435714D01*
X158894342Y-56435714D02*
X158989580Y-56483333D01*
X158989580Y-56483333D02*
X159037200Y-56530952D01*
X159037200Y-56530952D02*
X159084819Y-56626190D01*
X159084819Y-56626190D02*
X159084819Y-56721428D01*
X159084819Y-56721428D02*
X159037200Y-56816666D01*
X159037200Y-56816666D02*
X158989580Y-56864285D01*
X158989580Y-56864285D02*
X158894342Y-56911904D01*
X158894342Y-56911904D02*
X158703866Y-56959523D01*
X158703866Y-56959523D02*
X158465771Y-56959523D01*
X158465771Y-56959523D02*
X158275295Y-56911904D01*
X158275295Y-56911904D02*
X158180057Y-56864285D01*
X158180057Y-56864285D02*
X158132438Y-56816666D01*
X158132438Y-56816666D02*
X158084819Y-56721428D01*
X179597142Y-113954819D02*
X179263809Y-113478628D01*
X179025714Y-113954819D02*
X179025714Y-112954819D01*
X179025714Y-112954819D02*
X179406666Y-112954819D01*
X179406666Y-112954819D02*
X179501904Y-113002438D01*
X179501904Y-113002438D02*
X179549523Y-113050057D01*
X179549523Y-113050057D02*
X179597142Y-113145295D01*
X179597142Y-113145295D02*
X179597142Y-113288152D01*
X179597142Y-113288152D02*
X179549523Y-113383390D01*
X179549523Y-113383390D02*
X179501904Y-113431009D01*
X179501904Y-113431009D02*
X179406666Y-113478628D01*
X179406666Y-113478628D02*
X179025714Y-113478628D01*
X180549523Y-113954819D02*
X179978095Y-113954819D01*
X180263809Y-113954819D02*
X180263809Y-112954819D01*
X180263809Y-112954819D02*
X180168571Y-113097676D01*
X180168571Y-113097676D02*
X180073333Y-113192914D01*
X180073333Y-113192914D02*
X179978095Y-113240533D01*
X180882857Y-112954819D02*
X181501904Y-112954819D01*
X181501904Y-112954819D02*
X181168571Y-113335771D01*
X181168571Y-113335771D02*
X181311428Y-113335771D01*
X181311428Y-113335771D02*
X181406666Y-113383390D01*
X181406666Y-113383390D02*
X181454285Y-113431009D01*
X181454285Y-113431009D02*
X181501904Y-113526247D01*
X181501904Y-113526247D02*
X181501904Y-113764342D01*
X181501904Y-113764342D02*
X181454285Y-113859580D01*
X181454285Y-113859580D02*
X181406666Y-113907200D01*
X181406666Y-113907200D02*
X181311428Y-113954819D01*
X181311428Y-113954819D02*
X181025714Y-113954819D01*
X181025714Y-113954819D02*
X180930476Y-113907200D01*
X180930476Y-113907200D02*
X180882857Y-113859580D01*
X147546666Y-66854819D02*
X147546666Y-67569104D01*
X147546666Y-67569104D02*
X147499047Y-67711961D01*
X147499047Y-67711961D02*
X147403809Y-67807200D01*
X147403809Y-67807200D02*
X147260952Y-67854819D01*
X147260952Y-67854819D02*
X147165714Y-67854819D01*
X147927619Y-66854819D02*
X148594285Y-66854819D01*
X148594285Y-66854819D02*
X148165714Y-67854819D01*
X175364819Y-82308094D02*
X174364819Y-82308094D01*
X174364819Y-82308094D02*
X174364819Y-82069999D01*
X174364819Y-82069999D02*
X174412438Y-81927142D01*
X174412438Y-81927142D02*
X174507676Y-81831904D01*
X174507676Y-81831904D02*
X174602914Y-81784285D01*
X174602914Y-81784285D02*
X174793390Y-81736666D01*
X174793390Y-81736666D02*
X174936247Y-81736666D01*
X174936247Y-81736666D02*
X175126723Y-81784285D01*
X175126723Y-81784285D02*
X175221961Y-81831904D01*
X175221961Y-81831904D02*
X175317200Y-81927142D01*
X175317200Y-81927142D02*
X175364819Y-82069999D01*
X175364819Y-82069999D02*
X175364819Y-82308094D01*
X174364819Y-81403332D02*
X174364819Y-80784285D01*
X174364819Y-80784285D02*
X174745771Y-81117618D01*
X174745771Y-81117618D02*
X174745771Y-80974761D01*
X174745771Y-80974761D02*
X174793390Y-80879523D01*
X174793390Y-80879523D02*
X174841009Y-80831904D01*
X174841009Y-80831904D02*
X174936247Y-80784285D01*
X174936247Y-80784285D02*
X175174342Y-80784285D01*
X175174342Y-80784285D02*
X175269580Y-80831904D01*
X175269580Y-80831904D02*
X175317200Y-80879523D01*
X175317200Y-80879523D02*
X175364819Y-80974761D01*
X175364819Y-80974761D02*
X175364819Y-81260475D01*
X175364819Y-81260475D02*
X175317200Y-81355713D01*
X175317200Y-81355713D02*
X175269580Y-81403332D01*
X186594819Y-97473333D02*
X187309104Y-97473333D01*
X187309104Y-97473333D02*
X187451961Y-97520952D01*
X187451961Y-97520952D02*
X187547200Y-97616190D01*
X187547200Y-97616190D02*
X187594819Y-97759047D01*
X187594819Y-97759047D02*
X187594819Y-97854285D01*
X186594819Y-97092380D02*
X186594819Y-96473333D01*
X186594819Y-96473333D02*
X186975771Y-96806666D01*
X186975771Y-96806666D02*
X186975771Y-96663809D01*
X186975771Y-96663809D02*
X187023390Y-96568571D01*
X187023390Y-96568571D02*
X187071009Y-96520952D01*
X187071009Y-96520952D02*
X187166247Y-96473333D01*
X187166247Y-96473333D02*
X187404342Y-96473333D01*
X187404342Y-96473333D02*
X187499580Y-96520952D01*
X187499580Y-96520952D02*
X187547200Y-96568571D01*
X187547200Y-96568571D02*
X187594819Y-96663809D01*
X187594819Y-96663809D02*
X187594819Y-96949523D01*
X187594819Y-96949523D02*
X187547200Y-97044761D01*
X187547200Y-97044761D02*
X187499580Y-97092380D01*
X156404819Y-58029523D02*
X157119104Y-58029523D01*
X157119104Y-58029523D02*
X157261961Y-58077142D01*
X157261961Y-58077142D02*
X157357200Y-58172380D01*
X157357200Y-58172380D02*
X157404819Y-58315237D01*
X157404819Y-58315237D02*
X157404819Y-58410475D01*
X157404819Y-57029523D02*
X157404819Y-57600951D01*
X157404819Y-57315237D02*
X156404819Y-57315237D01*
X156404819Y-57315237D02*
X156547676Y-57410475D01*
X156547676Y-57410475D02*
X156642914Y-57505713D01*
X156642914Y-57505713D02*
X156690533Y-57600951D01*
X156404819Y-56124761D02*
X156404819Y-56600951D01*
X156404819Y-56600951D02*
X156881009Y-56648570D01*
X156881009Y-56648570D02*
X156833390Y-56600951D01*
X156833390Y-56600951D02*
X156785771Y-56505713D01*
X156785771Y-56505713D02*
X156785771Y-56267618D01*
X156785771Y-56267618D02*
X156833390Y-56172380D01*
X156833390Y-56172380D02*
X156881009Y-56124761D01*
X156881009Y-56124761D02*
X156976247Y-56077142D01*
X156976247Y-56077142D02*
X157214342Y-56077142D01*
X157214342Y-56077142D02*
X157309580Y-56124761D01*
X157309580Y-56124761D02*
X157357200Y-56172380D01*
X157357200Y-56172380D02*
X157404819Y-56267618D01*
X157404819Y-56267618D02*
X157404819Y-56505713D01*
X157404819Y-56505713D02*
X157357200Y-56600951D01*
X157357200Y-56600951D02*
X157309580Y-56648570D01*
X147596666Y-58044819D02*
X147596666Y-58759104D01*
X147596666Y-58759104D02*
X147549047Y-58901961D01*
X147549047Y-58901961D02*
X147453809Y-58997200D01*
X147453809Y-58997200D02*
X147310952Y-59044819D01*
X147310952Y-59044819D02*
X147215714Y-59044819D01*
X148549047Y-58044819D02*
X148072857Y-58044819D01*
X148072857Y-58044819D02*
X148025238Y-58521009D01*
X148025238Y-58521009D02*
X148072857Y-58473390D01*
X148072857Y-58473390D02*
X148168095Y-58425771D01*
X148168095Y-58425771D02*
X148406190Y-58425771D01*
X148406190Y-58425771D02*
X148501428Y-58473390D01*
X148501428Y-58473390D02*
X148549047Y-58521009D01*
X148549047Y-58521009D02*
X148596666Y-58616247D01*
X148596666Y-58616247D02*
X148596666Y-58854342D01*
X148596666Y-58854342D02*
X148549047Y-58949580D01*
X148549047Y-58949580D02*
X148501428Y-58997200D01*
X148501428Y-58997200D02*
X148406190Y-59044819D01*
X148406190Y-59044819D02*
X148168095Y-59044819D01*
X148168095Y-59044819D02*
X148072857Y-58997200D01*
X148072857Y-58997200D02*
X148025238Y-58949580D01*
X160689580Y-58196666D02*
X160737200Y-58244285D01*
X160737200Y-58244285D02*
X160784819Y-58387142D01*
X160784819Y-58387142D02*
X160784819Y-58482380D01*
X160784819Y-58482380D02*
X160737200Y-58625237D01*
X160737200Y-58625237D02*
X160641961Y-58720475D01*
X160641961Y-58720475D02*
X160546723Y-58768094D01*
X160546723Y-58768094D02*
X160356247Y-58815713D01*
X160356247Y-58815713D02*
X160213390Y-58815713D01*
X160213390Y-58815713D02*
X160022914Y-58768094D01*
X160022914Y-58768094D02*
X159927676Y-58720475D01*
X159927676Y-58720475D02*
X159832438Y-58625237D01*
X159832438Y-58625237D02*
X159784819Y-58482380D01*
X159784819Y-58482380D02*
X159784819Y-58387142D01*
X159784819Y-58387142D02*
X159832438Y-58244285D01*
X159832438Y-58244285D02*
X159880057Y-58196666D01*
X160784819Y-57720475D02*
X160784819Y-57529999D01*
X160784819Y-57529999D02*
X160737200Y-57434761D01*
X160737200Y-57434761D02*
X160689580Y-57387142D01*
X160689580Y-57387142D02*
X160546723Y-57291904D01*
X160546723Y-57291904D02*
X160356247Y-57244285D01*
X160356247Y-57244285D02*
X159975295Y-57244285D01*
X159975295Y-57244285D02*
X159880057Y-57291904D01*
X159880057Y-57291904D02*
X159832438Y-57339523D01*
X159832438Y-57339523D02*
X159784819Y-57434761D01*
X159784819Y-57434761D02*
X159784819Y-57625237D01*
X159784819Y-57625237D02*
X159832438Y-57720475D01*
X159832438Y-57720475D02*
X159880057Y-57768094D01*
X159880057Y-57768094D02*
X159975295Y-57815713D01*
X159975295Y-57815713D02*
X160213390Y-57815713D01*
X160213390Y-57815713D02*
X160308628Y-57768094D01*
X160308628Y-57768094D02*
X160356247Y-57720475D01*
X160356247Y-57720475D02*
X160403866Y-57625237D01*
X160403866Y-57625237D02*
X160403866Y-57434761D01*
X160403866Y-57434761D02*
X160356247Y-57339523D01*
X160356247Y-57339523D02*
X160308628Y-57291904D01*
X160308628Y-57291904D02*
X160213390Y-57244285D01*
X181203333Y-92039580D02*
X181155714Y-92087200D01*
X181155714Y-92087200D02*
X181012857Y-92134819D01*
X181012857Y-92134819D02*
X180917619Y-92134819D01*
X180917619Y-92134819D02*
X180774762Y-92087200D01*
X180774762Y-92087200D02*
X180679524Y-91991961D01*
X180679524Y-91991961D02*
X180631905Y-91896723D01*
X180631905Y-91896723D02*
X180584286Y-91706247D01*
X180584286Y-91706247D02*
X180584286Y-91563390D01*
X180584286Y-91563390D02*
X180631905Y-91372914D01*
X180631905Y-91372914D02*
X180679524Y-91277676D01*
X180679524Y-91277676D02*
X180774762Y-91182438D01*
X180774762Y-91182438D02*
X180917619Y-91134819D01*
X180917619Y-91134819D02*
X181012857Y-91134819D01*
X181012857Y-91134819D02*
X181155714Y-91182438D01*
X181155714Y-91182438D02*
X181203333Y-91230057D01*
X182060476Y-91134819D02*
X181870000Y-91134819D01*
X181870000Y-91134819D02*
X181774762Y-91182438D01*
X181774762Y-91182438D02*
X181727143Y-91230057D01*
X181727143Y-91230057D02*
X181631905Y-91372914D01*
X181631905Y-91372914D02*
X181584286Y-91563390D01*
X181584286Y-91563390D02*
X181584286Y-91944342D01*
X181584286Y-91944342D02*
X181631905Y-92039580D01*
X181631905Y-92039580D02*
X181679524Y-92087200D01*
X181679524Y-92087200D02*
X181774762Y-92134819D01*
X181774762Y-92134819D02*
X181965238Y-92134819D01*
X181965238Y-92134819D02*
X182060476Y-92087200D01*
X182060476Y-92087200D02*
X182108095Y-92039580D01*
X182108095Y-92039580D02*
X182155714Y-91944342D01*
X182155714Y-91944342D02*
X182155714Y-91706247D01*
X182155714Y-91706247D02*
X182108095Y-91611009D01*
X182108095Y-91611009D02*
X182060476Y-91563390D01*
X182060476Y-91563390D02*
X181965238Y-91515771D01*
X181965238Y-91515771D02*
X181774762Y-91515771D01*
X181774762Y-91515771D02*
X181679524Y-91563390D01*
X181679524Y-91563390D02*
X181631905Y-91611009D01*
X181631905Y-91611009D02*
X181584286Y-91706247D01*
X176431905Y-113964819D02*
X176431905Y-112964819D01*
X176431905Y-112964819D02*
X176670000Y-112964819D01*
X176670000Y-112964819D02*
X176812857Y-113012438D01*
X176812857Y-113012438D02*
X176908095Y-113107676D01*
X176908095Y-113107676D02*
X176955714Y-113202914D01*
X176955714Y-113202914D02*
X177003333Y-113393390D01*
X177003333Y-113393390D02*
X177003333Y-113536247D01*
X177003333Y-113536247D02*
X176955714Y-113726723D01*
X176955714Y-113726723D02*
X176908095Y-113821961D01*
X176908095Y-113821961D02*
X176812857Y-113917200D01*
X176812857Y-113917200D02*
X176670000Y-113964819D01*
X176670000Y-113964819D02*
X176431905Y-113964819D01*
X177908095Y-112964819D02*
X177431905Y-112964819D01*
X177431905Y-112964819D02*
X177384286Y-113441009D01*
X177384286Y-113441009D02*
X177431905Y-113393390D01*
X177431905Y-113393390D02*
X177527143Y-113345771D01*
X177527143Y-113345771D02*
X177765238Y-113345771D01*
X177765238Y-113345771D02*
X177860476Y-113393390D01*
X177860476Y-113393390D02*
X177908095Y-113441009D01*
X177908095Y-113441009D02*
X177955714Y-113536247D01*
X177955714Y-113536247D02*
X177955714Y-113774342D01*
X177955714Y-113774342D02*
X177908095Y-113869580D01*
X177908095Y-113869580D02*
X177860476Y-113917200D01*
X177860476Y-113917200D02*
X177765238Y-113964819D01*
X177765238Y-113964819D02*
X177527143Y-113964819D01*
X177527143Y-113964819D02*
X177431905Y-113917200D01*
X177431905Y-113917200D02*
X177384286Y-113869580D01*
X182503333Y-63554819D02*
X182170000Y-63078628D01*
X181931905Y-63554819D02*
X181931905Y-62554819D01*
X181931905Y-62554819D02*
X182312857Y-62554819D01*
X182312857Y-62554819D02*
X182408095Y-62602438D01*
X182408095Y-62602438D02*
X182455714Y-62650057D01*
X182455714Y-62650057D02*
X182503333Y-62745295D01*
X182503333Y-62745295D02*
X182503333Y-62888152D01*
X182503333Y-62888152D02*
X182455714Y-62983390D01*
X182455714Y-62983390D02*
X182408095Y-63031009D01*
X182408095Y-63031009D02*
X182312857Y-63078628D01*
X182312857Y-63078628D02*
X181931905Y-63078628D01*
X183455714Y-63554819D02*
X182884286Y-63554819D01*
X183170000Y-63554819D02*
X183170000Y-62554819D01*
X183170000Y-62554819D02*
X183074762Y-62697676D01*
X183074762Y-62697676D02*
X182979524Y-62792914D01*
X182979524Y-62792914D02*
X182884286Y-62840533D01*
X173441905Y-113894819D02*
X173441905Y-112894819D01*
X173441905Y-112894819D02*
X173680000Y-112894819D01*
X173680000Y-112894819D02*
X173822857Y-112942438D01*
X173822857Y-112942438D02*
X173918095Y-113037676D01*
X173918095Y-113037676D02*
X173965714Y-113132914D01*
X173965714Y-113132914D02*
X174013333Y-113323390D01*
X174013333Y-113323390D02*
X174013333Y-113466247D01*
X174013333Y-113466247D02*
X173965714Y-113656723D01*
X173965714Y-113656723D02*
X173918095Y-113751961D01*
X173918095Y-113751961D02*
X173822857Y-113847200D01*
X173822857Y-113847200D02*
X173680000Y-113894819D01*
X173680000Y-113894819D02*
X173441905Y-113894819D01*
X174965714Y-113894819D02*
X174394286Y-113894819D01*
X174680000Y-113894819D02*
X174680000Y-112894819D01*
X174680000Y-112894819D02*
X174584762Y-113037676D01*
X174584762Y-113037676D02*
X174489524Y-113132914D01*
X174489524Y-113132914D02*
X174394286Y-113180533D01*
D13*
%TO.C,H_Bridge1*%
X155100000Y-83690000D02*
X155100000Y-101530000D01*
X155100000Y-83690000D02*
X157760000Y-83690000D01*
X155100000Y-101530000D02*
X157760000Y-101530000D01*
X156430000Y-81090000D02*
X157760000Y-81090000D01*
X157760000Y-81090000D02*
X157760000Y-82420000D01*
X157760000Y-83690000D02*
X157760000Y-101530000D01*
X170400000Y-83700000D02*
X170400000Y-101540000D01*
X170400000Y-83700000D02*
X173060000Y-83700000D01*
X170400000Y-101540000D02*
X173060000Y-101540000D01*
X171730000Y-81100000D02*
X173060000Y-81100000D01*
X173060000Y-81100000D02*
X173060000Y-82430000D01*
X173060000Y-83700000D02*
X173060000Y-101540000D01*
%TO.C,SW3*%
X177810000Y-83580000D02*
X177810000Y-88320000D01*
X177810000Y-83580000D02*
X178210000Y-83580000D01*
X177810000Y-88320000D02*
X178210000Y-88320000D01*
X179150000Y-83580000D02*
X181210000Y-83580000D01*
X179150000Y-88320000D02*
X181210000Y-88320000D01*
X182550000Y-83580000D02*
X182150000Y-83580000D01*
X182550000Y-83580000D02*
X182550000Y-88320000D01*
X182550000Y-88320000D02*
X182150000Y-88320000D01*
%TO.C,R2*%
X184842742Y-61067500D02*
X185317258Y-61067500D01*
X184842742Y-62112500D02*
X185317258Y-62112500D01*
%TO.C,C8*%
X159720000Y-63549420D02*
X159720000Y-63830580D01*
X160740000Y-63549420D02*
X160740000Y-63830580D01*
%TO.C,R9*%
X181192742Y-95567500D02*
X181667258Y-95567500D01*
X181192742Y-96612500D02*
X181667258Y-96612500D01*
%TO.C,SW2*%
X174760000Y-93140000D02*
X174760000Y-97880000D01*
X174760000Y-93140000D02*
X175160000Y-93140000D01*
X174760000Y-97880000D02*
X175160000Y-97880000D01*
X176100000Y-93140000D02*
X178160000Y-93140000D01*
X176100000Y-97880000D02*
X178160000Y-97880000D01*
X179500000Y-93140000D02*
X179100000Y-93140000D01*
X179500000Y-93140000D02*
X179500000Y-97880000D01*
X179500000Y-97880000D02*
X179100000Y-97880000D01*
%TO.C,R12*%
X158077500Y-71972742D02*
X158077500Y-72447258D01*
X159122500Y-71972742D02*
X159122500Y-72447258D01*
%TO.C,R11*%
X159667500Y-72432258D02*
X159667500Y-71957742D01*
X160712500Y-72432258D02*
X160712500Y-71957742D01*
%TO.C,R8*%
X177222742Y-79057500D02*
X177697258Y-79057500D01*
X177222742Y-80102500D02*
X177697258Y-80102500D01*
%TO.C,J8*%
X147650000Y-80960000D02*
X147650000Y-88580000D01*
X147650000Y-88580000D02*
X153620000Y-88580000D01*
X148410000Y-81720000D02*
X148410000Y-84770000D01*
X148410000Y-87820000D02*
X148410000Y-84770000D01*
X151360000Y-80970000D02*
X151360000Y-81720000D01*
X151360000Y-81720000D02*
X148410000Y-81720000D01*
X151360000Y-87820000D02*
X148410000Y-87820000D01*
X151360000Y-88570000D02*
X151360000Y-87820000D01*
X152860000Y-80970000D02*
X152860000Y-82770000D01*
X152860000Y-82770000D02*
X153610000Y-82770000D01*
X152860000Y-84270000D02*
X152860000Y-85270000D01*
X152860000Y-85270000D02*
X153610000Y-85270000D01*
X152860000Y-86770000D02*
X152860000Y-88570000D01*
X152860000Y-88570000D02*
X153610000Y-88570000D01*
X153610000Y-80970000D02*
X152860000Y-80970000D01*
X153610000Y-82770000D02*
X153610000Y-80970000D01*
X153610000Y-84270000D02*
X152860000Y-84270000D01*
X153610000Y-85270000D02*
X153610000Y-84270000D01*
X153610000Y-86770000D02*
X152860000Y-86770000D01*
X153610000Y-88570000D02*
X153610000Y-86770000D01*
X153620000Y-80960000D02*
X147650000Y-80960000D01*
X153620000Y-88580000D02*
X153620000Y-80960000D01*
X153910000Y-80670000D02*
X152660000Y-80670000D01*
X153910000Y-81920000D02*
X153910000Y-80670000D01*
%TO.C,J4*%
X183730000Y-77160000D02*
X183730000Y-78410000D01*
X183730000Y-78410000D02*
X184980000Y-78410000D01*
X184020000Y-63000000D02*
X184020000Y-78120000D01*
X184020000Y-78120000D02*
X189990000Y-78120000D01*
X184030000Y-63010000D02*
X184030000Y-64810000D01*
X184030000Y-64810000D02*
X184780000Y-64810000D01*
X184030000Y-66310000D02*
X184030000Y-74810000D01*
X184030000Y-74810000D02*
X184780000Y-74810000D01*
X184030000Y-76310000D02*
X184030000Y-78110000D01*
X184030000Y-78110000D02*
X184780000Y-78110000D01*
X184780000Y-63010000D02*
X184030000Y-63010000D01*
X184780000Y-64810000D02*
X184780000Y-63010000D01*
X184780000Y-66310000D02*
X184030000Y-66310000D01*
X184780000Y-74810000D02*
X184780000Y-66310000D01*
X184780000Y-76310000D02*
X184030000Y-76310000D01*
X184780000Y-78110000D02*
X184780000Y-76310000D01*
X186280000Y-63010000D02*
X186280000Y-63760000D01*
X186280000Y-63760000D02*
X189230000Y-63760000D01*
X186280000Y-77360000D02*
X189230000Y-77360000D01*
X186280000Y-78110000D02*
X186280000Y-77360000D01*
X189230000Y-63760000D02*
X189230000Y-70560000D01*
X189230000Y-77360000D02*
X189230000Y-70560000D01*
X189990000Y-63000000D02*
X184020000Y-63000000D01*
X189990000Y-78120000D02*
X189990000Y-63000000D01*
%TO.C,R3*%
X170627500Y-110852742D02*
X170627500Y-111327258D01*
X171672500Y-110852742D02*
X171672500Y-111327258D01*
%TO.C,J9*%
X147350000Y-96250000D02*
X147350000Y-97500000D01*
X147350000Y-97500000D02*
X148600000Y-97500000D01*
X147640000Y-89590000D02*
X147640000Y-97210000D01*
X147640000Y-97210000D02*
X153610000Y-97210000D01*
X147650000Y-89600000D02*
X147650000Y-91400000D01*
X147650000Y-91400000D02*
X148400000Y-91400000D01*
X147650000Y-92900000D02*
X147650000Y-93900000D01*
X147650000Y-93900000D02*
X148400000Y-93900000D01*
X147650000Y-95400000D02*
X147650000Y-97200000D01*
X147650000Y-97200000D02*
X148400000Y-97200000D01*
X148400000Y-89600000D02*
X147650000Y-89600000D01*
X148400000Y-91400000D02*
X148400000Y-89600000D01*
X148400000Y-92900000D02*
X147650000Y-92900000D01*
X148400000Y-93900000D02*
X148400000Y-92900000D01*
X148400000Y-95400000D02*
X147650000Y-95400000D01*
X148400000Y-97200000D02*
X148400000Y-95400000D01*
X149900000Y-89600000D02*
X149900000Y-90350000D01*
X149900000Y-90350000D02*
X152850000Y-90350000D01*
X149900000Y-96450000D02*
X152850000Y-96450000D01*
X149900000Y-97200000D02*
X149900000Y-96450000D01*
X152850000Y-90350000D02*
X152850000Y-93400000D01*
X152850000Y-96450000D02*
X152850000Y-93400000D01*
X153610000Y-89590000D02*
X147640000Y-89590000D01*
X153610000Y-97210000D02*
X153610000Y-89590000D01*
%TO.C,R10*%
X159555580Y-69320000D02*
X159274420Y-69320000D01*
X159555580Y-70340000D02*
X159274420Y-70340000D01*
%TO.C,R14*%
X158127500Y-63472742D02*
X158127500Y-63947258D01*
X159172500Y-63472742D02*
X159172500Y-63947258D01*
%TO.C,ESP1*%
X161740000Y-52220000D02*
X161740000Y-58380000D01*
X161740000Y-52220000D02*
X179980000Y-52220000D01*
X161740000Y-77180000D02*
X161740000Y-77960000D01*
X161740000Y-77960000D02*
X162740000Y-77960000D01*
X179980000Y-52220000D02*
X179980000Y-58635000D01*
X179980000Y-77180000D02*
X179980000Y-77960000D01*
X179980000Y-77960000D02*
X178980000Y-77960000D01*
X161735000Y-59105000D02*
X161235000Y-59105000D01*
X161735000Y-58605000D01*
X161735000Y-59105000D01*
G36*
X161735000Y-59105000D02*
G01*
X161235000Y-59105000D01*
X161735000Y-58605000D01*
X161735000Y-59105000D01*
G37*
%TO.C,J2*%
X183950000Y-112800000D02*
X183950000Y-114050000D01*
X183950000Y-114050000D02*
X185200000Y-114050000D01*
X184240000Y-98640000D02*
X184240000Y-113760000D01*
X184240000Y-113760000D02*
X190210000Y-113760000D01*
X184250000Y-98650000D02*
X184250000Y-100450000D01*
X184250000Y-100450000D02*
X185000000Y-100450000D01*
X184250000Y-101950000D02*
X184250000Y-110450000D01*
X184250000Y-110450000D02*
X185000000Y-110450000D01*
X184250000Y-111950000D02*
X184250000Y-113750000D01*
X184250000Y-113750000D02*
X185000000Y-113750000D01*
X185000000Y-98650000D02*
X184250000Y-98650000D01*
X185000000Y-100450000D02*
X185000000Y-98650000D01*
X185000000Y-101950000D02*
X184250000Y-101950000D01*
X185000000Y-110450000D02*
X185000000Y-101950000D01*
X185000000Y-111950000D02*
X184250000Y-111950000D01*
X185000000Y-113750000D02*
X185000000Y-111950000D01*
X186500000Y-98650000D02*
X186500000Y-99400000D01*
X186500000Y-99400000D02*
X189450000Y-99400000D01*
X186500000Y-113000000D02*
X189450000Y-113000000D01*
X186500000Y-113750000D02*
X186500000Y-113000000D01*
X189450000Y-99400000D02*
X189450000Y-106200000D01*
X189450000Y-113000000D02*
X189450000Y-106200000D01*
X190210000Y-98640000D02*
X184240000Y-98640000D01*
X190210000Y-113760000D02*
X190210000Y-98640000D01*
%TO.C,6_Pins_Button1*%
X147167500Y-107112500D02*
X147167500Y-105742500D01*
X147417500Y-105552500D02*
X147417500Y-99692500D01*
X147447500Y-99692500D02*
X147547500Y-99692500D01*
X147497500Y-105552500D02*
X147417500Y-105552500D01*
X148537500Y-107112500D02*
X147167500Y-107112500D01*
X149720000Y-99692500D02*
X149575000Y-99692500D01*
X149720000Y-105692500D02*
X149575000Y-105692500D01*
X151720000Y-99692500D02*
X151575000Y-99692500D01*
X151720000Y-105692500D02*
X151575000Y-105692500D01*
X153667500Y-105692500D02*
X153747500Y-105692500D01*
X153747500Y-99692500D02*
X153667500Y-99692500D01*
X153747500Y-105692500D02*
X153747500Y-99692500D01*
%TO.C,J6*%
X147620000Y-65380000D02*
X147620000Y-64320000D01*
X148680000Y-65380000D02*
X147620000Y-65380000D01*
X149680000Y-63260000D02*
X153740000Y-63260000D01*
X149680000Y-65380000D02*
X149680000Y-63260000D01*
X149680000Y-65380000D02*
X153740000Y-65380000D01*
X153740000Y-65380000D02*
X153740000Y-63260000D01*
%TO.C,C5*%
X181490580Y-98910000D02*
X181209420Y-98910000D01*
X181490580Y-99930000D02*
X181209420Y-99930000D01*
%TO.C,C10*%
X158140000Y-60770580D02*
X158140000Y-60489420D01*
X159160000Y-60770580D02*
X159160000Y-60489420D01*
%TO.C,J11*%
X158980000Y-91250000D02*
X158980000Y-101370000D01*
X158980000Y-101370000D02*
X164950000Y-101370000D01*
X159740000Y-92010000D02*
X159740000Y-96310000D01*
X159740000Y-100610000D02*
X159740000Y-96310000D01*
X162690000Y-91260000D02*
X162690000Y-92010000D01*
X162690000Y-92010000D02*
X159740000Y-92010000D01*
X162690000Y-100610000D02*
X159740000Y-100610000D01*
X162690000Y-101360000D02*
X162690000Y-100610000D01*
X164190000Y-91260000D02*
X164190000Y-93060000D01*
X164190000Y-93060000D02*
X164940000Y-93060000D01*
X164190000Y-94560000D02*
X164190000Y-98060000D01*
X164190000Y-98060000D02*
X164940000Y-98060000D01*
X164190000Y-99560000D02*
X164190000Y-101360000D01*
X164190000Y-101360000D02*
X164940000Y-101360000D01*
X164940000Y-91260000D02*
X164190000Y-91260000D01*
X164940000Y-93060000D02*
X164940000Y-91260000D01*
X164940000Y-94560000D02*
X164190000Y-94560000D01*
X164940000Y-98060000D02*
X164940000Y-94560000D01*
X164940000Y-99560000D02*
X164190000Y-99560000D01*
X164940000Y-101360000D02*
X164940000Y-99560000D01*
X164950000Y-91250000D02*
X158980000Y-91250000D01*
X164950000Y-101370000D02*
X164950000Y-91250000D01*
X165240000Y-90960000D02*
X163990000Y-90960000D01*
X165240000Y-92210000D02*
X165240000Y-90960000D01*
%TO.C,R13*%
X179567500Y-110852742D02*
X179567500Y-111327258D01*
X180612500Y-110852742D02*
X180612500Y-111327258D01*
%TO.C,J7*%
X147590000Y-69880000D02*
X147590000Y-68820000D01*
X148650000Y-69880000D02*
X147590000Y-69880000D01*
X149650000Y-67760000D02*
X153710000Y-67760000D01*
X149650000Y-69880000D02*
X149650000Y-67760000D01*
X149650000Y-69880000D02*
X153710000Y-69880000D01*
X153710000Y-69880000D02*
X153710000Y-67760000D01*
%TO.C,D3*%
X175915000Y-81470000D02*
X175915000Y-83755000D01*
X175915000Y-83755000D02*
X177385000Y-83755000D01*
X177385000Y-83755000D02*
X177385000Y-81470000D01*
%TO.C,J1*%
X147980000Y-108210000D02*
X147980000Y-114330000D01*
X147980000Y-114330000D02*
X152700000Y-114330000D01*
X148590000Y-108820000D02*
X148590000Y-113720000D01*
X148590000Y-111170000D02*
X149090000Y-111170000D01*
X148590000Y-111270000D02*
X149090000Y-111270000D01*
X148590000Y-113720000D02*
X152090000Y-113720000D01*
X149090000Y-111170000D02*
X149090000Y-111370000D01*
X149090000Y-111370000D02*
X148590000Y-111370000D01*
X150090000Y-108210000D02*
X150090000Y-108820000D01*
X150090000Y-114330000D02*
X150090000Y-113720000D01*
X151390000Y-108210000D02*
X151390000Y-108820000D01*
X151390000Y-114330000D02*
X151390000Y-113720000D01*
X152090000Y-108820000D02*
X148590000Y-108820000D01*
X152090000Y-110770000D02*
X152090000Y-108820000D01*
X152090000Y-111770000D02*
X152700000Y-111770000D01*
X152090000Y-113720000D02*
X152090000Y-111770000D01*
X152700000Y-108210000D02*
X147980000Y-108210000D01*
X152700000Y-109970000D02*
X152900000Y-109970000D01*
X152700000Y-110770000D02*
X152090000Y-110770000D01*
X152700000Y-114330000D02*
X152700000Y-108210000D01*
X152800000Y-109970000D02*
X152800000Y-109670000D01*
X152900000Y-109670000D02*
X152700000Y-109670000D01*
X152900000Y-109970000D02*
X152900000Y-109670000D01*
X153000000Y-107910000D02*
X151750000Y-107910000D01*
X153000000Y-109160000D02*
X153000000Y-107910000D01*
%TO.C,J3*%
X183950000Y-94760000D02*
X183950000Y-96010000D01*
X183950000Y-96010000D02*
X185200000Y-96010000D01*
X184240000Y-80600000D02*
X184240000Y-95720000D01*
X184240000Y-95720000D02*
X190210000Y-95720000D01*
X184250000Y-80610000D02*
X184250000Y-82410000D01*
X184250000Y-82410000D02*
X185000000Y-82410000D01*
X184250000Y-83910000D02*
X184250000Y-92410000D01*
X184250000Y-92410000D02*
X185000000Y-92410000D01*
X184250000Y-93910000D02*
X184250000Y-95710000D01*
X184250000Y-95710000D02*
X185000000Y-95710000D01*
X185000000Y-80610000D02*
X184250000Y-80610000D01*
X185000000Y-82410000D02*
X185000000Y-80610000D01*
X185000000Y-83910000D02*
X184250000Y-83910000D01*
X185000000Y-92410000D02*
X185000000Y-83910000D01*
X185000000Y-93910000D02*
X184250000Y-93910000D01*
X185000000Y-95710000D02*
X185000000Y-93910000D01*
X186500000Y-80610000D02*
X186500000Y-81360000D01*
X186500000Y-81360000D02*
X189450000Y-81360000D01*
X186500000Y-94960000D02*
X189450000Y-94960000D01*
X186500000Y-95710000D02*
X186500000Y-94960000D01*
X189450000Y-81360000D02*
X189450000Y-88160000D01*
X189450000Y-94960000D02*
X189450000Y-88160000D01*
X190210000Y-80600000D02*
X184240000Y-80600000D01*
X190210000Y-95720000D02*
X190210000Y-80600000D01*
%TO.C,J15*%
X154740000Y-61680000D02*
X154740000Y-79520000D01*
X154740000Y-61680000D02*
X157400000Y-61680000D01*
X154740000Y-79520000D02*
X157400000Y-79520000D01*
X156070000Y-59080000D02*
X157400000Y-59080000D01*
X157400000Y-59080000D02*
X157400000Y-60410000D01*
X157400000Y-61680000D02*
X157400000Y-79520000D01*
%TO.C,J5*%
X147610000Y-61180000D02*
X147610000Y-60120000D01*
X148670000Y-61180000D02*
X147610000Y-61180000D01*
X149670000Y-59060000D02*
X153730000Y-59060000D01*
X149670000Y-61180000D02*
X149670000Y-59060000D01*
X149670000Y-61180000D02*
X153730000Y-61180000D01*
X153730000Y-61180000D02*
X153730000Y-59060000D01*
%TO.C,C9*%
X159730000Y-60760580D02*
X159730000Y-60479420D01*
X160750000Y-60760580D02*
X160750000Y-60479420D01*
%TO.C,C6*%
X181229420Y-92600000D02*
X181510580Y-92600000D01*
X181229420Y-93620000D02*
X181510580Y-93620000D01*
%TO.C,D5*%
X176388332Y-110270000D02*
X176388332Y-112555000D01*
X176388332Y-112555000D02*
X177858332Y-112555000D01*
X177858332Y-112555000D02*
X177858332Y-110270000D01*
%TO.C,J10*%
X158980000Y-80250000D02*
X158980000Y-90370000D01*
X158980000Y-90370000D02*
X164950000Y-90370000D01*
X159740000Y-81010000D02*
X159740000Y-85310000D01*
X159740000Y-89610000D02*
X159740000Y-85310000D01*
X162690000Y-80260000D02*
X162690000Y-81010000D01*
X162690000Y-81010000D02*
X159740000Y-81010000D01*
X162690000Y-89610000D02*
X159740000Y-89610000D01*
X162690000Y-90360000D02*
X162690000Y-89610000D01*
X164190000Y-80260000D02*
X164190000Y-82060000D01*
X164190000Y-82060000D02*
X164940000Y-82060000D01*
X164190000Y-83560000D02*
X164190000Y-87060000D01*
X164190000Y-87060000D02*
X164940000Y-87060000D01*
X164190000Y-88560000D02*
X164190000Y-90360000D01*
X164190000Y-90360000D02*
X164940000Y-90360000D01*
X164940000Y-80260000D02*
X164190000Y-80260000D01*
X164940000Y-82060000D02*
X164940000Y-80260000D01*
X164940000Y-83560000D02*
X164190000Y-83560000D01*
X164940000Y-87060000D02*
X164940000Y-83560000D01*
X164940000Y-88560000D02*
X164190000Y-88560000D01*
X164940000Y-90360000D02*
X164940000Y-88560000D01*
X164950000Y-80250000D02*
X158980000Y-80250000D01*
X164950000Y-90370000D02*
X164950000Y-80250000D01*
X165240000Y-79960000D02*
X163990000Y-79960000D01*
X165240000Y-81210000D02*
X165240000Y-79960000D01*
%TO.C,R1*%
X182187500Y-61107258D02*
X182187500Y-60632742D01*
X183232500Y-61107258D02*
X183232500Y-60632742D01*
%TO.C,D1*%
X173381666Y-109625000D02*
X173381666Y-111910000D01*
X174851666Y-109625000D02*
X173381666Y-109625000D01*
X174851666Y-111910000D02*
X174851666Y-109625000D01*
%TD*%
M02*
